<?xml version="1.0" encoding="utf-8" standalone="no"?>
<!DOCTYPE svg PUBLIC "-//W3C//DTD SVG 1.1//EN"
  "http://www.w3.org/Graphics/SVG/1.1/DTD/svg11.dtd">
<!-- Created with matplotlib (https://matplotlib.org/) -->
<svg height="360pt" version="1.1" viewBox="0 0 360 360" width="360pt" xmlns="http://www.w3.org/2000/svg" xmlns:xlink="http://www.w3.org/1999/xlink">
 <defs>
  <style type="text/css">
*{stroke-linecap:butt;stroke-linejoin:round;}
  </style>
 </defs>
 <g id="figure_1">
  <g id="patch_1">
   <path d="M 0 360 
L 360 360 
L 360 0 
L 0 0 
z
" style="fill:#ffffff;"/>
  </g>
  <g id="axes_1">
   <g id="patch_2">
    <path d="M 45 315 
L 324 315 
L 324 43.2 
L 45 43.2 
z
" style="fill:#ffffff;"/>
   </g>
   <g id="matplotlib.axis_1">
    <g id="xtick_1">
     <g id="line2d_1">
      <defs>
       <path d="M 0 0 
L 0 3.5 
" id="ma95b6b9069" style="stroke:#000000;stroke-width:0.8;"/>
      </defs>
      <g>
       <use style="stroke:#000000;stroke-width:0.8;" x="57.681818" xlink:href="#ma95b6b9069" y="315"/>
      </g>
     </g>
     <g id="text_1">
      <!-- 0.0 -->
      <defs>
       <path d="M 31.78125 66.40625 
Q 24.171875 66.40625 20.328125 58.90625 
Q 16.5 51.421875 16.5 36.375 
Q 16.5 21.390625 20.328125 13.890625 
Q 24.171875 6.390625 31.78125 6.390625 
Q 39.453125 6.390625 43.28125 13.890625 
Q 47.125 21.390625 47.125 36.375 
Q 47.125 51.421875 43.28125 58.90625 
Q 39.453125 66.40625 31.78125 66.40625 
z
M 31.78125 74.21875 
Q 44.046875 74.21875 50.515625 64.515625 
Q 56.984375 54.828125 56.984375 36.375 
Q 56.984375 17.96875 50.515625 8.265625 
Q 44.046875 -1.421875 31.78125 -1.421875 
Q 19.53125 -1.421875 13.0625 8.265625 
Q 6.59375 17.96875 6.59375 36.375 
Q 6.59375 54.828125 13.0625 64.515625 
Q 19.53125 74.21875 31.78125 74.21875 
z
" id="DejaVuSans-48"/>
       <path d="M 10.6875 12.40625 
L 21 12.40625 
L 21 0 
L 10.6875 0 
z
" id="DejaVuSans-46"/>
      </defs>
      <g transform="translate(49.730256 329.598437)scale(0.1 -0.1)">
       <use xlink:href="#DejaVuSans-48"/>
       <use x="63.623047" xlink:href="#DejaVuSans-46"/>
       <use x="95.410156" xlink:href="#DejaVuSans-48"/>
      </g>
     </g>
    </g>
    <g id="xtick_2">
     <g id="line2d_2">
      <g>
       <use style="stroke:#000000;stroke-width:0.8;" x="108.409091" xlink:href="#ma95b6b9069" y="315"/>
      </g>
     </g>
     <g id="text_2">
      <!-- 0.2 -->
      <defs>
       <path d="M 19.1875 8.296875 
L 53.609375 8.296875 
L 53.609375 0 
L 7.328125 0 
L 7.328125 8.296875 
Q 12.9375 14.109375 22.625 23.890625 
Q 32.328125 33.6875 34.8125 36.53125 
Q 39.546875 41.84375 41.421875 45.53125 
Q 43.3125 49.21875 43.3125 52.78125 
Q 43.3125 58.59375 39.234375 62.25 
Q 35.15625 65.921875 28.609375 65.921875 
Q 23.96875 65.921875 18.8125 64.3125 
Q 13.671875 62.703125 7.8125 59.421875 
L 7.8125 69.390625 
Q 13.765625 71.78125 18.9375 73 
Q 24.125 74.21875 28.421875 74.21875 
Q 39.75 74.21875 46.484375 68.546875 
Q 53.21875 62.890625 53.21875 53.421875 
Q 53.21875 48.921875 51.53125 44.890625 
Q 49.859375 40.875 45.40625 35.40625 
Q 44.1875 33.984375 37.640625 27.21875 
Q 31.109375 20.453125 19.1875 8.296875 
z
" id="DejaVuSans-50"/>
      </defs>
      <g transform="translate(100.457528 329.598437)scale(0.1 -0.1)">
       <use xlink:href="#DejaVuSans-48"/>
       <use x="63.623047" xlink:href="#DejaVuSans-46"/>
       <use x="95.410156" xlink:href="#DejaVuSans-50"/>
      </g>
     </g>
    </g>
    <g id="xtick_3">
     <g id="line2d_3">
      <g>
       <use style="stroke:#000000;stroke-width:0.8;" x="159.136364" xlink:href="#ma95b6b9069" y="315"/>
      </g>
     </g>
     <g id="text_3">
      <!-- 0.4 -->
      <defs>
       <path d="M 37.796875 64.3125 
L 12.890625 25.390625 
L 37.796875 25.390625 
z
M 35.203125 72.90625 
L 47.609375 72.90625 
L 47.609375 25.390625 
L 58.015625 25.390625 
L 58.015625 17.1875 
L 47.609375 17.1875 
L 47.609375 0 
L 37.796875 0 
L 37.796875 17.1875 
L 4.890625 17.1875 
L 4.890625 26.703125 
z
" id="DejaVuSans-52"/>
      </defs>
      <g transform="translate(151.184801 329.598437)scale(0.1 -0.1)">
       <use xlink:href="#DejaVuSans-48"/>
       <use x="63.623047" xlink:href="#DejaVuSans-46"/>
       <use x="95.410156" xlink:href="#DejaVuSans-52"/>
      </g>
     </g>
    </g>
    <g id="xtick_4">
     <g id="line2d_4">
      <g>
       <use style="stroke:#000000;stroke-width:0.8;" x="209.863636" xlink:href="#ma95b6b9069" y="315"/>
      </g>
     </g>
     <g id="text_4">
      <!-- 0.6 -->
      <defs>
       <path d="M 33.015625 40.375 
Q 26.375 40.375 22.484375 35.828125 
Q 18.609375 31.296875 18.609375 23.390625 
Q 18.609375 15.53125 22.484375 10.953125 
Q 26.375 6.390625 33.015625 6.390625 
Q 39.65625 6.390625 43.53125 10.953125 
Q 47.40625 15.53125 47.40625 23.390625 
Q 47.40625 31.296875 43.53125 35.828125 
Q 39.65625 40.375 33.015625 40.375 
z
M 52.59375 71.296875 
L 52.59375 62.3125 
Q 48.875 64.0625 45.09375 64.984375 
Q 41.3125 65.921875 37.59375 65.921875 
Q 27.828125 65.921875 22.671875 59.328125 
Q 17.53125 52.734375 16.796875 39.40625 
Q 19.671875 43.65625 24.015625 45.921875 
Q 28.375 48.1875 33.59375 48.1875 
Q 44.578125 48.1875 50.953125 41.515625 
Q 57.328125 34.859375 57.328125 23.390625 
Q 57.328125 12.15625 50.6875 5.359375 
Q 44.046875 -1.421875 33.015625 -1.421875 
Q 20.359375 -1.421875 13.671875 8.265625 
Q 6.984375 17.96875 6.984375 36.375 
Q 6.984375 53.65625 15.1875 63.9375 
Q 23.390625 74.21875 37.203125 74.21875 
Q 40.921875 74.21875 44.703125 73.484375 
Q 48.484375 72.75 52.59375 71.296875 
z
" id="DejaVuSans-54"/>
      </defs>
      <g transform="translate(201.912074 329.598437)scale(0.1 -0.1)">
       <use xlink:href="#DejaVuSans-48"/>
       <use x="63.623047" xlink:href="#DejaVuSans-46"/>
       <use x="95.410156" xlink:href="#DejaVuSans-54"/>
      </g>
     </g>
    </g>
    <g id="xtick_5">
     <g id="line2d_5">
      <g>
       <use style="stroke:#000000;stroke-width:0.8;" x="260.590909" xlink:href="#ma95b6b9069" y="315"/>
      </g>
     </g>
     <g id="text_5">
      <!-- 0.8 -->
      <defs>
       <path d="M 31.78125 34.625 
Q 24.75 34.625 20.71875 30.859375 
Q 16.703125 27.09375 16.703125 20.515625 
Q 16.703125 13.921875 20.71875 10.15625 
Q 24.75 6.390625 31.78125 6.390625 
Q 38.8125 6.390625 42.859375 10.171875 
Q 46.921875 13.96875 46.921875 20.515625 
Q 46.921875 27.09375 42.890625 30.859375 
Q 38.875 34.625 31.78125 34.625 
z
M 21.921875 38.8125 
Q 15.578125 40.375 12.03125 44.71875 
Q 8.5 49.078125 8.5 55.328125 
Q 8.5 64.0625 14.71875 69.140625 
Q 20.953125 74.21875 31.78125 74.21875 
Q 42.671875 74.21875 48.875 69.140625 
Q 55.078125 64.0625 55.078125 55.328125 
Q 55.078125 49.078125 51.53125 44.71875 
Q 48 40.375 41.703125 38.8125 
Q 48.828125 37.15625 52.796875 32.3125 
Q 56.78125 27.484375 56.78125 20.515625 
Q 56.78125 9.90625 50.3125 4.234375 
Q 43.84375 -1.421875 31.78125 -1.421875 
Q 19.734375 -1.421875 13.25 4.234375 
Q 6.78125 9.90625 6.78125 20.515625 
Q 6.78125 27.484375 10.78125 32.3125 
Q 14.796875 37.15625 21.921875 38.8125 
z
M 18.3125 54.390625 
Q 18.3125 48.734375 21.84375 45.5625 
Q 25.390625 42.390625 31.78125 42.390625 
Q 38.140625 42.390625 41.71875 45.5625 
Q 45.3125 48.734375 45.3125 54.390625 
Q 45.3125 60.0625 41.71875 63.234375 
Q 38.140625 66.40625 31.78125 66.40625 
Q 25.390625 66.40625 21.84375 63.234375 
Q 18.3125 60.0625 18.3125 54.390625 
z
" id="DejaVuSans-56"/>
      </defs>
      <g transform="translate(252.639347 329.598437)scale(0.1 -0.1)">
       <use xlink:href="#DejaVuSans-48"/>
       <use x="63.623047" xlink:href="#DejaVuSans-46"/>
       <use x="95.410156" xlink:href="#DejaVuSans-56"/>
      </g>
     </g>
    </g>
    <g id="xtick_6">
     <g id="line2d_6">
      <g>
       <use style="stroke:#000000;stroke-width:0.8;" x="311.318182" xlink:href="#ma95b6b9069" y="315"/>
      </g>
     </g>
     <g id="text_6">
      <!-- 1.0 -->
      <defs>
       <path d="M 12.40625 8.296875 
L 28.515625 8.296875 
L 28.515625 63.921875 
L 10.984375 60.40625 
L 10.984375 69.390625 
L 28.421875 72.90625 
L 38.28125 72.90625 
L 38.28125 8.296875 
L 54.390625 8.296875 
L 54.390625 0 
L 12.40625 0 
z
" id="DejaVuSans-49"/>
      </defs>
      <g transform="translate(303.366619 329.598437)scale(0.1 -0.1)">
       <use xlink:href="#DejaVuSans-49"/>
       <use x="63.623047" xlink:href="#DejaVuSans-46"/>
       <use x="95.410156" xlink:href="#DejaVuSans-48"/>
      </g>
     </g>
    </g>
    <g id="text_7">
     <!-- Time Step -->
     <defs>
      <path d="M -0.296875 72.90625 
L 61.375 72.90625 
L 61.375 64.59375 
L 35.5 64.59375 
L 35.5 0 
L 25.59375 0 
L 25.59375 64.59375 
L -0.296875 64.59375 
z
" id="DejaVuSans-84"/>
      <path d="M 9.421875 54.6875 
L 18.40625 54.6875 
L 18.40625 0 
L 9.421875 0 
z
M 9.421875 75.984375 
L 18.40625 75.984375 
L 18.40625 64.59375 
L 9.421875 64.59375 
z
" id="DejaVuSans-105"/>
      <path d="M 52 44.1875 
Q 55.375 50.25 60.0625 53.125 
Q 64.75 56 71.09375 56 
Q 79.640625 56 84.28125 50.015625 
Q 88.921875 44.046875 88.921875 33.015625 
L 88.921875 0 
L 79.890625 0 
L 79.890625 32.71875 
Q 79.890625 40.578125 77.09375 44.375 
Q 74.3125 48.1875 68.609375 48.1875 
Q 61.625 48.1875 57.5625 43.546875 
Q 53.515625 38.921875 53.515625 30.90625 
L 53.515625 0 
L 44.484375 0 
L 44.484375 32.71875 
Q 44.484375 40.625 41.703125 44.40625 
Q 38.921875 48.1875 33.109375 48.1875 
Q 26.21875 48.1875 22.15625 43.53125 
Q 18.109375 38.875 18.109375 30.90625 
L 18.109375 0 
L 9.078125 0 
L 9.078125 54.6875 
L 18.109375 54.6875 
L 18.109375 46.1875 
Q 21.1875 51.21875 25.484375 53.609375 
Q 29.78125 56 35.6875 56 
Q 41.65625 56 45.828125 52.96875 
Q 50 49.953125 52 44.1875 
z
" id="DejaVuSans-109"/>
      <path d="M 56.203125 29.59375 
L 56.203125 25.203125 
L 14.890625 25.203125 
Q 15.484375 15.921875 20.484375 11.0625 
Q 25.484375 6.203125 34.421875 6.203125 
Q 39.59375 6.203125 44.453125 7.46875 
Q 49.3125 8.734375 54.109375 11.28125 
L 54.109375 2.78125 
Q 49.265625 0.734375 44.1875 -0.34375 
Q 39.109375 -1.421875 33.890625 -1.421875 
Q 20.796875 -1.421875 13.15625 6.1875 
Q 5.515625 13.8125 5.515625 26.8125 
Q 5.515625 40.234375 12.765625 48.109375 
Q 20.015625 56 32.328125 56 
Q 43.359375 56 49.78125 48.890625 
Q 56.203125 41.796875 56.203125 29.59375 
z
M 47.21875 32.234375 
Q 47.125 39.59375 43.09375 43.984375 
Q 39.0625 48.390625 32.421875 48.390625 
Q 24.90625 48.390625 20.390625 44.140625 
Q 15.875 39.890625 15.1875 32.171875 
z
" id="DejaVuSans-101"/>
      <path id="DejaVuSans-32"/>
      <path d="M 53.515625 70.515625 
L 53.515625 60.890625 
Q 47.90625 63.578125 42.921875 64.890625 
Q 37.9375 66.21875 33.296875 66.21875 
Q 25.25 66.21875 20.875 63.09375 
Q 16.5 59.96875 16.5 54.203125 
Q 16.5 49.359375 19.40625 46.890625 
Q 22.3125 44.4375 30.421875 42.921875 
L 36.375 41.703125 
Q 47.40625 39.59375 52.65625 34.296875 
Q 57.90625 29 57.90625 20.125 
Q 57.90625 9.515625 50.796875 4.046875 
Q 43.703125 -1.421875 29.984375 -1.421875 
Q 24.8125 -1.421875 18.96875 -0.25 
Q 13.140625 0.921875 6.890625 3.21875 
L 6.890625 13.375 
Q 12.890625 10.015625 18.65625 8.296875 
Q 24.421875 6.59375 29.984375 6.59375 
Q 38.421875 6.59375 43.015625 9.90625 
Q 47.609375 13.234375 47.609375 19.390625 
Q 47.609375 24.75 44.3125 27.78125 
Q 41.015625 30.8125 33.5 32.328125 
L 27.484375 33.5 
Q 16.453125 35.6875 11.515625 40.375 
Q 6.59375 45.0625 6.59375 53.421875 
Q 6.59375 63.09375 13.40625 68.65625 
Q 20.21875 74.21875 32.171875 74.21875 
Q 37.3125 74.21875 42.625 73.28125 
Q 47.953125 72.359375 53.515625 70.515625 
z
" id="DejaVuSans-83"/>
      <path d="M 18.3125 70.21875 
L 18.3125 54.6875 
L 36.8125 54.6875 
L 36.8125 47.703125 
L 18.3125 47.703125 
L 18.3125 18.015625 
Q 18.3125 11.328125 20.140625 9.421875 
Q 21.96875 7.515625 27.59375 7.515625 
L 36.8125 7.515625 
L 36.8125 0 
L 27.59375 0 
Q 17.1875 0 13.234375 3.875 
Q 9.28125 7.765625 9.28125 18.015625 
L 9.28125 47.703125 
L 2.6875 47.703125 
L 2.6875 54.6875 
L 9.28125 54.6875 
L 9.28125 70.21875 
z
" id="DejaVuSans-116"/>
      <path d="M 18.109375 8.203125 
L 18.109375 -20.796875 
L 9.078125 -20.796875 
L 9.078125 54.6875 
L 18.109375 54.6875 
L 18.109375 46.390625 
Q 20.953125 51.265625 25.265625 53.625 
Q 29.59375 56 35.59375 56 
Q 45.5625 56 51.78125 48.09375 
Q 58.015625 40.1875 58.015625 27.296875 
Q 58.015625 14.40625 51.78125 6.484375 
Q 45.5625 -1.421875 35.59375 -1.421875 
Q 29.59375 -1.421875 25.265625 0.953125 
Q 20.953125 3.328125 18.109375 8.203125 
z
M 48.6875 27.296875 
Q 48.6875 37.203125 44.609375 42.84375 
Q 40.53125 48.484375 33.40625 48.484375 
Q 26.265625 48.484375 22.1875 42.84375 
Q 18.109375 37.203125 18.109375 27.296875 
Q 18.109375 17.390625 22.1875 11.75 
Q 26.265625 6.109375 33.40625 6.109375 
Q 40.53125 6.109375 44.609375 11.75 
Q 48.6875 17.390625 48.6875 27.296875 
z
" id="DejaVuSans-112"/>
     </defs>
     <g transform="translate(159.292188 343.276563)scale(0.1 -0.1)">
      <use xlink:href="#DejaVuSans-84"/>
      <use x="57.958984" xlink:href="#DejaVuSans-105"/>
      <use x="85.742188" xlink:href="#DejaVuSans-109"/>
      <use x="183.154297" xlink:href="#DejaVuSans-101"/>
      <use x="244.677734" xlink:href="#DejaVuSans-32"/>
      <use x="276.464844" xlink:href="#DejaVuSans-83"/>
      <use x="339.941406" xlink:href="#DejaVuSans-116"/>
      <use x="379.150391" xlink:href="#DejaVuSans-101"/>
      <use x="440.673828" xlink:href="#DejaVuSans-112"/>
     </g>
    </g>
    <g id="text_8">
     <!-- 1e7 -->
     <defs>
      <path d="M 8.203125 72.90625 
L 55.078125 72.90625 
L 55.078125 68.703125 
L 28.609375 0 
L 18.3125 0 
L 43.21875 64.59375 
L 8.203125 64.59375 
z
" id="DejaVuSans-55"/>
     </defs>
     <g transform="translate(305.121875 342.276563)scale(0.1 -0.1)">
      <use xlink:href="#DejaVuSans-49"/>
      <use x="63.623047" xlink:href="#DejaVuSans-101"/>
      <use x="125.146484" xlink:href="#DejaVuSans-55"/>
     </g>
    </g>
   </g>
   <g id="matplotlib.axis_2">
    <g id="ytick_1">
     <g id="line2d_7">
      <defs>
       <path d="M 0 0 
L -3.5 0 
" id="m7158d61322" style="stroke:#000000;stroke-width:0.8;"/>
      </defs>
      <g>
       <use style="stroke:#000000;stroke-width:0.8;" x="45" xlink:href="#m7158d61322" y="306.379923"/>
      </g>
     </g>
     <g id="text_9">
      <!-- 0 -->
      <g transform="translate(31.6375 310.179141)scale(0.1 -0.1)">
       <use xlink:href="#DejaVuSans-48"/>
      </g>
     </g>
    </g>
    <g id="ytick_2">
     <g id="line2d_8">
      <g>
       <use style="stroke:#000000;stroke-width:0.8;" x="45" xlink:href="#m7158d61322" y="274.15496"/>
      </g>
     </g>
     <g id="text_10">
      <!-- 5 -->
      <defs>
       <path d="M 10.796875 72.90625 
L 49.515625 72.90625 
L 49.515625 64.59375 
L 19.828125 64.59375 
L 19.828125 46.734375 
Q 21.96875 47.46875 24.109375 47.828125 
Q 26.265625 48.1875 28.421875 48.1875 
Q 40.625 48.1875 47.75 41.5 
Q 54.890625 34.8125 54.890625 23.390625 
Q 54.890625 11.625 47.5625 5.09375 
Q 40.234375 -1.421875 26.90625 -1.421875 
Q 22.3125 -1.421875 17.546875 -0.640625 
Q 12.796875 0.140625 7.71875 1.703125 
L 7.71875 11.625 
Q 12.109375 9.234375 16.796875 8.0625 
Q 21.484375 6.890625 26.703125 6.890625 
Q 35.15625 6.890625 40.078125 11.328125 
Q 45.015625 15.765625 45.015625 23.390625 
Q 45.015625 31 40.078125 35.4375 
Q 35.15625 39.890625 26.703125 39.890625 
Q 22.75 39.890625 18.8125 39.015625 
Q 14.890625 38.140625 10.796875 36.28125 
z
" id="DejaVuSans-53"/>
      </defs>
      <g transform="translate(31.6375 277.954179)scale(0.1 -0.1)">
       <use xlink:href="#DejaVuSans-53"/>
      </g>
     </g>
    </g>
    <g id="ytick_3">
     <g id="line2d_9">
      <g>
       <use style="stroke:#000000;stroke-width:0.8;" x="45" xlink:href="#m7158d61322" y="241.929998"/>
      </g>
     </g>
     <g id="text_11">
      <!-- 10 -->
      <g transform="translate(25.275 245.729217)scale(0.1 -0.1)">
       <use xlink:href="#DejaVuSans-49"/>
       <use x="63.623047" xlink:href="#DejaVuSans-48"/>
      </g>
     </g>
    </g>
    <g id="ytick_4">
     <g id="line2d_10">
      <g>
       <use style="stroke:#000000;stroke-width:0.8;" x="45" xlink:href="#m7158d61322" y="209.705035"/>
      </g>
     </g>
     <g id="text_12">
      <!-- 15 -->
      <g transform="translate(25.275 213.504254)scale(0.1 -0.1)">
       <use xlink:href="#DejaVuSans-49"/>
       <use x="63.623047" xlink:href="#DejaVuSans-53"/>
      </g>
     </g>
    </g>
    <g id="ytick_5">
     <g id="line2d_11">
      <g>
       <use style="stroke:#000000;stroke-width:0.8;" x="45" xlink:href="#m7158d61322" y="177.480073"/>
      </g>
     </g>
     <g id="text_13">
      <!-- 20 -->
      <g transform="translate(25.275 181.279292)scale(0.1 -0.1)">
       <use xlink:href="#DejaVuSans-50"/>
       <use x="63.623047" xlink:href="#DejaVuSans-48"/>
      </g>
     </g>
    </g>
    <g id="ytick_6">
     <g id="line2d_12">
      <g>
       <use style="stroke:#000000;stroke-width:0.8;" x="45" xlink:href="#m7158d61322" y="145.25511"/>
      </g>
     </g>
     <g id="text_14">
      <!-- 25 -->
      <g transform="translate(25.275 149.054329)scale(0.1 -0.1)">
       <use xlink:href="#DejaVuSans-50"/>
       <use x="63.623047" xlink:href="#DejaVuSans-53"/>
      </g>
     </g>
    </g>
    <g id="ytick_7">
     <g id="line2d_13">
      <g>
       <use style="stroke:#000000;stroke-width:0.8;" x="45" xlink:href="#m7158d61322" y="113.030148"/>
      </g>
     </g>
     <g id="text_15">
      <!-- 30 -->
      <defs>
       <path d="M 40.578125 39.3125 
Q 47.65625 37.796875 51.625 33 
Q 55.609375 28.21875 55.609375 21.1875 
Q 55.609375 10.40625 48.1875 4.484375 
Q 40.765625 -1.421875 27.09375 -1.421875 
Q 22.515625 -1.421875 17.65625 -0.515625 
Q 12.796875 0.390625 7.625 2.203125 
L 7.625 11.71875 
Q 11.71875 9.328125 16.59375 8.109375 
Q 21.484375 6.890625 26.8125 6.890625 
Q 36.078125 6.890625 40.9375 10.546875 
Q 45.796875 14.203125 45.796875 21.1875 
Q 45.796875 27.640625 41.28125 31.265625 
Q 36.765625 34.90625 28.71875 34.90625 
L 20.21875 34.90625 
L 20.21875 43.015625 
L 29.109375 43.015625 
Q 36.375 43.015625 40.234375 45.921875 
Q 44.09375 48.828125 44.09375 54.296875 
Q 44.09375 59.90625 40.109375 62.90625 
Q 36.140625 65.921875 28.71875 65.921875 
Q 24.65625 65.921875 20.015625 65.03125 
Q 15.375 64.15625 9.8125 62.3125 
L 9.8125 71.09375 
Q 15.4375 72.65625 20.34375 73.4375 
Q 25.25 74.21875 29.59375 74.21875 
Q 40.828125 74.21875 47.359375 69.109375 
Q 53.90625 64.015625 53.90625 55.328125 
Q 53.90625 49.265625 50.4375 45.09375 
Q 46.96875 40.921875 40.578125 39.3125 
z
" id="DejaVuSans-51"/>
      </defs>
      <g transform="translate(25.275 116.829367)scale(0.1 -0.1)">
       <use xlink:href="#DejaVuSans-51"/>
       <use x="63.623047" xlink:href="#DejaVuSans-48"/>
      </g>
     </g>
    </g>
    <g id="ytick_8">
     <g id="line2d_14">
      <g>
       <use style="stroke:#000000;stroke-width:0.8;" x="45" xlink:href="#m7158d61322" y="80.805185"/>
      </g>
     </g>
     <g id="text_16">
      <!-- 35 -->
      <g transform="translate(25.275 84.604404)scale(0.1 -0.1)">
       <use xlink:href="#DejaVuSans-51"/>
       <use x="63.623047" xlink:href="#DejaVuSans-53"/>
      </g>
     </g>
    </g>
    <g id="ytick_9">
     <g id="line2d_15">
      <g>
       <use style="stroke:#000000;stroke-width:0.8;" x="45" xlink:href="#m7158d61322" y="48.580223"/>
      </g>
     </g>
     <g id="text_17">
      <!-- 40 -->
      <g transform="translate(25.275 52.379442)scale(0.1 -0.1)">
       <use xlink:href="#DejaVuSans-52"/>
       <use x="63.623047" xlink:href="#DejaVuSans-48"/>
      </g>
     </g>
    </g>
   </g>
   <g id="line2d_16">
    <path clip-path="url(#pce6c35ae4b)" d="M 57.681818 58.095526 
L 57.935455 55.554545 
L 58.189091 152.648435 
L 58.442727 171.4107 
L 58.696364 225.884722 
L 58.95 151.563572 
L 59.203636 124.489703 
L 59.457273 58.709752 
L 59.710909 302.645455 
L 59.964545 299.724389 
L 60.218182 78.438 
L 60.471818 62.140233 
L 60.725455 302.408903 
L 60.979091 298.495966 
L 61.232727 298.861474 
L 61.486364 227.290989 
L 61.74 227.023302 
L 61.993636 297.667257 
L 62.247273 296.590126 
L 62.500909 171.463503 
L 62.754545 299.29129 
L 63.008182 298.565539 
L 63.261818 296.335993 
L 63.515455 299.127478 
L 64.022727 295.383781 
L 64.276364 296.349359 
L 64.53 103.040143 
L 64.783636 294.77349 
L 65.037273 297.540265 
L 65.290909 297.093539 
L 65.544545 227.220964 
L 65.798182 227.910532 
L 66.051818 295.194676 
L 66.305455 294.390194 
L 66.559091 294.169857 
L 66.812727 196.172812 
L 67.066364 296.765302 
L 67.32 293.456476 
L 67.573636 293.718968 
L 67.827273 293.266463 
L 68.080909 290.463408 
L 68.334545 294.81563 
L 68.588182 228.464114 
L 68.841818 292.653782 
L 69.095455 293.309846 
L 69.349091 227.924782 
L 69.602727 291.593577 
L 69.856364 290.370524 
L 70.11 290.121085 
L 70.363636 288.864392 
L 70.617273 291.182699 
L 70.870909 289.871106 
L 71.124545 289.251897 
L 71.378182 291.855529 
L 71.631818 288.348393 
L 71.885455 286.956024 
L 72.139091 290.958301 
L 72.392727 286.685422 
L 72.646364 288.95526 
L 72.9 227.961009 
L 73.153636 289.367184 
L 73.407273 288.971469 
L 73.660909 290.64142 
L 73.914545 287.52752 
L 74.168182 286.894853 
L 74.421818 287.820922 
L 74.675455 287.525592 
L 75.182727 289.437338 
L 75.436364 284.844617 
L 75.69 287.034971 
L 76.197273 281.315711 
L 76.450909 284.699738 
L 76.958182 283.001312 
L 77.211818 283.710263 
L 77.465455 286.845457 
L 77.719091 286.635265 
L 77.972727 283.078127 
L 78.226364 282.911474 
L 78.48 281.89385 
L 78.733636 284.415129 
L 78.987273 280.903556 
L 79.240909 283.981576 
L 79.494545 285.149518 
L 79.748182 278.849922 
L 80.001818 283.996954 
L 80.255455 282.691656 
L 80.509091 282.769059 
L 80.762727 281.852229 
L 81.016364 278.022417 
L 81.27 279.126997 
L 81.523636 277.413628 
L 81.777273 277.591259 
L 82.030909 278.031173 
L 82.284545 279.850002 
L 82.538182 280.463597 
L 82.791818 277.96991 
L 83.045455 279.04259 
L 83.299091 278.608025 
L 83.552727 275.785594 
L 83.806364 279.198495 
L 84.06 277.633731 
L 84.313636 274.087636 
L 84.567273 277.123682 
L 84.820909 274.207819 
L 85.328182 276.983501 
L 85.581818 275.847143 
L 85.835455 279.352908 
L 86.089091 275.011206 
L 86.342727 277.599635 
L 86.596364 277.39845 
L 86.85 272.685215 
L 87.103636 275.497376 
L 87.357273 275.87802 
L 87.610909 273.049108 
L 87.864545 275.481317 
L 88.118182 272.421389 
L 88.371818 272.28674 
L 88.625455 271.459593 
L 88.879091 274.19917 
L 89.386364 272.420448 
L 89.64 274.011098 
L 89.893636 274.281157 
L 90.147273 269.57777 
L 90.400909 270.191663 
L 90.654545 274.346942 
L 91.161818 269.804856 
L 91.415455 270.754682 
L 91.669091 271.09922 
L 91.922727 271.224978 
L 92.176364 270.443479 
L 92.43 273.147083 
L 92.683636 268.845499 
L 93.190909 270.271782 
L 93.444545 269.52541 
L 93.698182 269.352421 
L 93.951818 272.207895 
L 94.205455 269.471806 
L 94.459091 268.654509 
L 94.712727 267.188069 
L 94.966364 268.613733 
L 95.22 269.395025 
L 95.980909 266.97051 
L 96.234545 268.808441 
L 96.488182 267.33111 
L 96.741818 268.049271 
L 96.995455 265.528485 
L 97.249091 266.584112 
L 97.502727 266.601587 
L 97.756364 270.673827 
L 98.01 265.292232 
L 98.263636 267.178306 
L 98.517273 265.031046 
L 98.770909 265.041863 
L 99.024545 264.687075 
L 99.278182 266.565371 
L 99.531818 264.62557 
L 99.785455 267.233116 
L 100.292727 264.71629 
L 100.546364 266.402344 
L 101.053636 261.950127 
L 101.307273 262.332677 
L 101.560909 260.702886 
L 101.814545 265.166434 
L 102.068182 262.547985 
L 102.321818 264.899832 
L 102.829091 261.860394 
L 103.082727 260.193838 
L 103.336364 263.225366 
L 103.59 263.094798 
L 103.843636 261.450916 
L 104.097273 260.915813 
L 104.350909 260.091508 
L 104.604545 261.524065 
L 104.858182 262.103558 
L 105.111818 262.140982 
L 105.365455 258.689009 
L 105.619091 263.657012 
L 106.126364 259.361762 
L 106.38 259.838659 
L 106.633636 261.07283 
L 106.887273 259.606571 
L 107.140909 259.510852 
L 107.394545 259.945182 
L 107.648182 259.447838 
L 107.901818 262.312142 
L 108.155455 259.26595 
L 108.409091 258.732449 
L 108.662727 257.241052 
L 108.916364 257.895456 
L 109.17 259.02012 
L 109.423636 259.159016 
L 109.930909 258.723519 
L 110.438182 254.538275 
L 110.945455 256.517949 
L 111.199091 257.928351 
L 111.452727 257.916527 
L 111.706364 256.744462 
L 111.96 257.132749 
L 112.213636 254.87938 
L 112.467273 256.549044 
L 112.720909 254.983355 
L 113.228182 257.38609 
L 113.481818 254.952398 
L 113.735455 255.54287 
L 113.989091 257.227419 
L 114.242727 255.733647 
L 114.496364 256.814769 
L 114.75 256.116304 
L 115.003636 254.112721 
L 115.257273 255.68422 
L 115.764545 253.570041 
L 116.271818 254.156095 
L 116.525455 251.690884 
L 116.779091 253.957161 
L 117.032727 254.603988 
L 117.54 252.91272 
L 118.047273 254.078685 
L 118.554545 251.545609 
L 119.061818 255.707502 
L 119.315455 252.617748 
L 119.569091 252.992957 
L 119.822727 251.189422 
L 120.076364 253.386714 
L 120.33 252.035872 
L 120.583636 249.269161 
L 120.837273 251.407501 
L 121.090909 252.046149 
L 121.344545 250.539844 
L 121.598182 250.086384 
L 121.851818 250.427425 
L 122.105455 251.623293 
L 122.359091 250.667913 
L 122.612727 249.257857 
L 123.12 250.571312 
L 123.373636 250.594769 
L 123.627273 251.761037 
L 123.880909 250.027138 
L 124.134545 250.433399 
L 124.388182 249.868412 
L 124.641818 250.718069 
L 124.895455 246.204405 
L 125.149091 249.001488 
L 125.402727 248.720896 
L 125.656364 250.854423 
L 125.91 249.630514 
L 126.163636 246.336261 
L 126.417273 248.623653 
L 126.670909 248.096234 
L 126.924545 249.145161 
L 127.178182 247.477166 
L 127.431818 248.059471 
L 127.685455 248.050164 
L 127.939091 247.558479 
L 128.192727 249.68143 
L 128.446364 247.883429 
L 128.7 249.589242 
L 128.953636 245.747026 
L 129.207273 248.24574 
L 129.460909 249.147088 
L 129.968182 244.382905 
L 130.221818 248.173294 
L 130.475455 247.595813 
L 130.729091 248.578874 
L 130.982727 246.736208 
L 131.236364 248.418692 
L 131.49 244.386873 
L 131.743636 244.419979 
L 131.997273 243.825459 
L 132.250909 245.254461 
L 132.504545 244.558403 
L 133.011818 247.56873 
L 133.265455 246.789058 
L 133.519091 246.399088 
L 133.772727 244.976128 
L 134.28 245.89615 
L 134.533636 243.355061 
L 134.787273 245.477788 
L 135.040909 245.909162 
L 135.294545 245.357253 
L 135.548182 246.388352 
L 135.801818 243.022055 
L 136.055455 247.22452 
L 136.309091 242.616041 
L 136.562727 244.851832 
L 136.816364 242.828301 
L 137.07 242.338739 
L 137.323636 245.340889 
L 137.577273 243.760755 
L 137.830909 242.991702 
L 138.084545 243.250847 
L 138.338182 242.804212 
L 138.845455 244.231063 
L 139.099091 243.941524 
L 139.352727 244.779581 
L 139.606364 242.449253 
L 139.86 244.038891 
L 140.113636 240.781686 
L 140.367273 242.387631 
L 140.874545 240.9651 
L 141.128182 242.638569 
L 141.381818 242.408366 
L 141.635455 242.450128 
L 141.889091 241.901477 
L 142.396364 243.038319 
L 142.65 241.893493 
L 142.903636 243.551205 
L 143.410909 241.050925 
L 143.664545 241.103735 
L 143.918182 240.508374 
L 144.171818 241.458902 
L 144.425455 242.970263 
L 144.679091 241.195091 
L 144.932727 242.397871 
L 145.186364 240.338585 
L 145.44 240.595636 
L 145.693636 239.408065 
L 146.200909 241.568254 
L 146.454545 240.581299 
L 146.708182 241.275826 
L 146.961818 240.68967 
L 147.215455 239.802611 
L 147.469091 240.297737 
L 147.722727 240.166222 
L 147.976364 239.667571 
L 148.23 242.244018 
L 148.483636 239.255997 
L 148.737273 238.948368 
L 148.990909 239.847995 
L 149.244545 239.055933 
L 149.498182 238.895046 
L 149.751818 238.494794 
L 150.005455 239.499635 
L 150.259091 239.704615 
L 150.512727 237.756875 
L 150.766364 238.817599 
L 151.02 238.114156 
L 151.527273 239.883553 
L 151.780909 237.868151 
L 152.034545 237.642146 
L 152.541818 238.956712 
L 152.795455 238.055776 
L 153.049091 236.154242 
L 153.302727 238.15255 
L 153.556364 237.31158 
L 153.81 238.044783 
L 154.063636 237.009295 
L 154.317273 237.700972 
L 154.570909 238.961139 
L 154.824545 237.612775 
L 155.078182 237.363027 
L 155.331818 235.750082 
L 155.585455 237.092717 
L 155.839091 236.603741 
L 156.092727 238.549883 
L 156.346364 237.281523 
L 156.6 237.520488 
L 156.853636 237.425173 
L 157.107273 235.425155 
L 157.360909 235.721293 
L 157.868182 237.333753 
L 158.121818 237.455155 
L 158.375455 235.891364 
L 158.882727 236.704153 
L 159.136364 234.604592 
L 159.39 236.931441 
L 159.643636 235.33864 
L 159.897273 237.356539 
L 160.150909 235.408545 
L 160.404545 236.61438 
L 160.658182 234.643577 
L 160.911818 235.139803 
L 161.165455 236.509569 
L 161.419091 235.415792 
L 161.926364 234.567952 
L 162.18 234.356952 
L 162.433636 234.372577 
L 162.687273 236.516758 
L 162.940909 235.624978 
L 163.194545 233.912119 
L 163.448182 233.529668 
L 163.701818 233.505633 
L 163.955455 234.020407 
L 164.209091 233.530266 
L 164.462727 235.423842 
L 164.97 233.900546 
L 165.223636 234.384601 
L 165.477273 232.746396 
L 165.730909 234.887756 
L 165.984545 234.31603 
L 166.238182 234.149824 
L 166.491818 232.33787 
L 166.745455 232.961442 
L 166.999091 232.595865 
L 167.252727 233.012115 
L 167.506364 233.75848 
L 167.76 234.965947 
L 168.013636 233.549087 
L 168.267273 234.258922 
L 168.520909 233.503196 
L 168.774545 233.137317 
L 169.028182 234.137316 
L 169.281818 232.97681 
L 169.535455 234.530765 
L 169.789091 232.512147 
L 170.042727 233.480618 
L 170.296364 233.420493 
L 170.55 234.383547 
L 170.803636 231.205286 
L 171.057273 231.673437 
L 171.310909 233.777107 
L 171.564545 233.481064 
L 171.818182 232.612879 
L 172.071818 233.813171 
L 172.325455 232.061637 
L 172.579091 232.203507 
L 172.832727 232.901633 
L 173.086364 231.616137 
L 173.34 231.678391 
L 173.593636 232.124751 
L 173.847273 232.163202 
L 174.100909 231.471447 
L 174.354545 232.003846 
L 174.608182 231.848565 
L 174.861818 233.047893 
L 175.115455 230.726752 
L 175.369091 231.976681 
L 175.622727 231.618619 
L 176.13 233.614234 
L 176.383636 231.341611 
L 176.890909 232.667476 
L 177.144545 231.709486 
L 177.398182 231.869705 
L 177.651818 231.857578 
L 177.905455 231.293819 
L 178.412727 231.259979 
L 178.666364 231.490509 
L 178.92 230.525398 
L 179.173636 232.875282 
L 179.427273 232.184507 
L 179.680909 230.798166 
L 179.934545 231.258164 
L 180.188182 232.341298 
L 180.441818 228.930691 
L 180.695455 231.980627 
L 180.949091 230.661307 
L 181.202727 230.954874 
L 181.71 230.195362 
L 181.963636 230.546794 
L 182.217273 231.843904 
L 182.470909 230.693082 
L 182.724545 228.863223 
L 182.978182 228.994978 
L 183.231818 229.429713 
L 183.485455 231.363791 
L 183.992727 229.864031 
L 184.246364 229.22974 
L 184.5 230.281136 
L 184.753636 228.961325 
L 185.007273 230.511676 
L 185.260909 227.848831 
L 185.768182 230.520352 
L 186.021818 229.55013 
L 186.275455 229.216815 
L 186.529091 229.616196 
L 186.782727 228.953229 
L 187.036364 228.820148 
L 187.29 230.017001 
L 187.543636 228.638688 
L 188.050909 230.028247 
L 188.304545 229.272759 
L 188.558182 229.342571 
L 188.811818 227.963642 
L 189.065455 228.663193 
L 189.319091 229.807231 
L 189.572727 227.471866 
L 189.826364 228.904341 
L 190.08 228.846663 
L 190.587273 228.124836 
L 190.840909 229.487075 
L 191.094545 228.399612 
L 191.348182 227.932412 
L 191.601818 226.535222 
L 191.855455 228.432173 
L 192.109091 228.861805 
L 192.362727 227.812704 
L 192.616364 228.631107 
L 192.87 227.210855 
L 193.123636 228.411346 
L 193.377273 227.990921 
L 193.630909 228.606806 
L 194.138182 227.215517 
L 194.391818 228.451574 
L 194.645455 227.82891 
L 194.899091 226.741876 
L 195.406364 228.050702 
L 195.66 226.984837 
L 195.913636 226.678657 
L 196.167273 225.449593 
L 196.420909 227.332252 
L 196.674545 226.560175 
L 196.928182 228.435946 
L 197.181818 226.803814 
L 197.435455 227.719494 
L 197.942727 226.418828 
L 198.196364 226.894896 
L 198.45 227.090563 
L 198.703636 225.715661 
L 199.210909 226.809741 
L 199.464545 226.337295 
L 199.718182 228.18882 
L 199.971818 227.28031 
L 200.225455 227.762241 
L 200.479091 226.062986 
L 200.986364 226.621021 
L 201.24 226.167005 
L 201.493636 226.01547 
L 201.747273 227.053178 
L 202.000909 226.624512 
L 202.254545 225.793433 
L 202.508182 225.422499 
L 202.761818 226.467754 
L 203.015455 226.605568 
L 203.269091 225.435738 
L 203.522727 226.241052 
L 203.776364 226.23329 
L 204.03 226.85543 
L 204.537273 225.233557 
L 204.790909 225.145175 
L 205.044545 225.826403 
L 205.551818 224.747372 
L 205.805455 225.260736 
L 206.059091 226.270252 
L 206.312727 225.442237 
L 206.566364 225.280572 
L 206.82 225.325431 
L 207.073636 226.89321 
L 207.327273 224.862119 
L 207.580909 224.713708 
L 207.834545 224.985529 
L 208.341818 225.879361 
L 208.849091 225.232129 
L 209.356364 223.463089 
L 209.61 225.88131 
L 209.863636 224.068175 
L 210.117273 225.16938 
L 210.370909 224.999545 
L 210.624545 224.532076 
L 210.878182 224.869616 
L 211.131818 224.540718 
L 211.385455 223.837924 
L 211.639091 223.584093 
L 211.892727 225.150187 
L 212.146364 224.736397 
L 212.4 223.596443 
L 212.653636 225.153262 
L 212.907273 224.042206 
L 213.160909 223.680746 
L 213.414545 223.080687 
L 213.668182 224.190554 
L 213.921818 224.010612 
L 214.175455 224.01997 
L 214.429091 223.828611 
L 214.682727 224.127806 
L 214.936364 224.821438 
L 215.19 222.607549 
L 215.443636 224.631644 
L 215.697273 224.955353 
L 215.950909 223.560001 
L 216.204545 223.38671 
L 216.458182 224.001061 
L 216.711818 223.917601 
L 216.965455 224.067126 
L 217.219091 222.904486 
L 217.472727 223.90188 
L 217.726364 223.053788 
L 217.98 223.701988 
L 218.233636 224.941838 
L 218.487273 222.25696 
L 218.740909 224.210198 
L 218.994545 224.297963 
L 219.248182 224.134764 
L 219.501818 223.220532 
L 219.755455 223.821448 
L 220.009091 221.87171 
L 220.262727 223.996638 
L 220.516364 224.144686 
L 220.77 223.060486 
L 221.277273 222.437906 
L 221.530909 224.197774 
L 221.784545 223.118271 
L 222.038182 223.18628 
L 222.291818 223.095336 
L 222.799091 222.385274 
L 223.052727 223.057309 
L 223.306364 222.635582 
L 223.56 223.034328 
L 223.813636 222.575435 
L 224.067273 222.830717 
L 224.320909 222.525865 
L 224.828182 222.925167 
L 225.081818 222.396057 
L 225.335455 222.349788 
L 225.589091 221.832666 
L 225.842727 223.185417 
L 226.096364 223.382054 
L 226.35 222.469729 
L 226.603636 222.649804 
L 226.857273 222.589831 
L 227.110909 222.144945 
L 227.364545 222.608531 
L 227.618182 222.648144 
L 227.871818 221.950897 
L 228.125455 222.591085 
L 228.379091 222.409498 
L 228.632727 222.608559 
L 228.886364 222.332591 
L 229.14 222.741701 
L 229.393636 221.994088 
L 229.647273 222.528478 
L 229.900909 223.477111 
L 230.661818 221.652564 
L 230.915455 222.002754 
L 231.169091 221.271283 
L 231.676364 222.591376 
L 231.93 222.136824 
L 232.183636 221.275661 
L 232.437273 222.217865 
L 232.690909 221.271156 
L 232.944545 220.938736 
L 233.198182 221.480578 
L 233.705455 221.640944 
L 233.959091 220.145523 
L 234.212727 221.311918 
L 234.466364 221.790293 
L 234.72 221.710749 
L 234.973636 221.018162 
L 235.227273 220.717406 
L 235.480909 221.270202 
L 235.734545 221.153375 
L 235.988182 220.368706 
L 236.241818 221.370195 
L 236.495455 219.832403 
L 236.749091 221.897874 
L 237.002727 219.533232 
L 237.256364 220.238524 
L 237.51 221.80365 
L 237.763636 220.790338 
L 238.017273 220.902891 
L 238.270909 220.766177 
L 238.524545 221.78187 
L 238.778182 221.266916 
L 239.031818 220.06039 
L 239.285455 220.873916 
L 239.539091 220.384742 
L 239.792727 221.255117 
L 240.3 220.40096 
L 241.314545 220.183625 
L 241.821818 221.530957 
L 242.075455 219.634045 
L 242.329091 221.026375 
L 242.582727 221.359151 
L 242.836364 220.960085 
L 243.09 219.946928 
L 243.343636 220.521802 
L 243.597273 221.823981 
L 243.850909 221.106874 
L 244.104545 219.584078 
L 244.358182 220.358777 
L 244.611818 220.505339 
L 244.865455 220.000596 
L 245.119091 220.155441 
L 245.372727 220.807973 
L 245.626364 219.498765 
L 245.88 220.043459 
L 246.133636 220.110296 
L 246.387273 219.121027 
L 246.640909 220.98787 
L 246.894545 219.573753 
L 247.148182 218.94351 
L 247.401818 219.798151 
L 247.655455 220.054551 
L 247.909091 220.675824 
L 248.162727 219.069078 
L 248.416364 219.241474 
L 248.67 220.450173 
L 248.923636 220.440513 
L 249.177273 219.960926 
L 249.430909 220.320413 
L 249.684545 218.632137 
L 250.191818 221.024688 
L 250.445455 219.586484 
L 250.699091 220.215426 
L 250.952727 218.054989 
L 251.46 219.894901 
L 251.713636 220.160721 
L 251.967273 219.747486 
L 252.220909 219.004131 
L 252.728182 220.272287 
L 253.235455 219.251674 
L 253.489091 219.611014 
L 253.996364 218.909533 
L 254.25 219.055686 
L 254.757273 219.03682 
L 255.010909 219.466444 
L 255.264545 219.571996 
L 255.518182 219.273333 
L 255.771818 219.216874 
L 256.025455 218.219307 
L 256.279091 218.781986 
L 257.04 218.353426 
L 257.293636 219.826715 
L 257.547273 218.315839 
L 257.800909 219.620939 
L 258.054545 218.430591 
L 258.308182 218.418533 
L 258.561818 217.919389 
L 258.815455 219.088865 
L 259.069091 219.191128 
L 259.322727 218.903057 
L 259.576364 218.925375 
L 259.83 218.285599 
L 260.083636 218.535334 
L 260.337273 217.405033 
L 260.590909 218.838284 
L 260.844545 219.342926 
L 261.098182 219.552476 
L 261.605455 218.262004 
L 261.859091 218.507024 
L 262.112727 218.19364 
L 262.366364 219.051141 
L 262.873636 217.802818 
L 263.127273 218.673882 
L 263.380909 217.984955 
L 263.634545 218.485509 
L 263.888182 217.97977 
L 264.141818 218.019107 
L 264.395455 217.925772 
L 264.649091 216.953403 
L 264.902727 217.177679 
L 265.156364 218.274462 
L 265.41 217.784975 
L 265.663636 217.715191 
L 265.917273 218.605922 
L 266.170909 218.130384 
L 266.424545 218.196263 
L 266.931818 218.041837 
L 267.185455 218.155484 
L 267.439091 217.873081 
L 267.692727 219.379343 
L 267.946364 217.994884 
L 268.2 217.624309 
L 268.453636 218.147954 
L 268.707273 218.416487 
L 268.960909 217.775538 
L 269.214545 217.644642 
L 269.721818 216.488569 
L 269.975455 217.861361 
L 270.229091 217.576622 
L 270.482727 217.113012 
L 270.736364 217.485992 
L 270.99 216.6363 
L 271.243636 217.954915 
L 271.497273 217.797061 
L 271.750909 217.770996 
L 272.004545 217.03994 
L 272.258182 217.815385 
L 272.511818 216.592773 
L 272.765455 217.801676 
L 273.019091 217.521879 
L 273.272727 216.90103 
L 273.526364 217.329549 
L 273.78 216.845614 
L 274.033636 217.141827 
L 274.287273 218.085551 
L 274.540909 217.010499 
L 274.794545 217.308769 
L 275.048182 217.851585 
L 275.301818 217.608149 
L 275.555455 216.715114 
L 275.809091 217.356762 
L 276.062727 217.44522 
L 276.316364 217.653182 
L 276.57 217.119076 
L 276.823636 217.577813 
L 277.077273 216.121722 
L 277.584545 217.465443 
L 277.838182 216.487135 
L 278.091818 216.61991 
L 278.345455 216.298932 
L 279.106364 216.533518 
L 279.36 216.086496 
L 279.613636 215.187977 
L 279.867273 216.948887 
L 280.374545 215.853858 
L 280.628182 216.504441 
L 280.881818 215.999656 
L 281.389091 216.702895 
L 281.642727 216.147532 
L 281.896364 216.595052 
L 282.15 216.115889 
L 282.403636 215.983893 
L 282.657273 216.671921 
L 282.910909 216.318708 
L 283.418182 216.425225 
L 283.671818 216.944127 
L 283.925455 216.328711 
L 284.179091 216.208255 
L 284.432727 215.844578 
L 284.686364 217.236116 
L 284.94 216.1392 
L 285.193636 217.083429 
L 285.447273 216.399204 
L 285.700909 216.643749 
L 285.954545 215.904129 
L 286.208182 216.072253 
L 286.969091 215.521346 
L 287.222727 216.63358 
L 287.476364 216.405974 
L 287.73 216.591287 
L 287.983636 215.442339 
L 288.237273 215.688871 
L 288.490909 215.371231 
L 289.251818 216.101582 
L 289.505455 215.740722 
L 289.759091 215.752178 
L 290.012727 217.215046 
L 290.266364 214.897414 
L 290.52 215.901244 
L 290.773636 215.853007 
L 291.027273 216.167542 
L 291.280909 215.579021 
L 291.534545 215.6903 
L 291.788182 214.743205 
L 292.041818 215.599305 
L 292.295455 215.65256 
L 292.549091 215.526818 
L 292.802727 214.904095 
L 293.056364 215.555427 
L 293.31 215.140705 
L 293.563636 215.178497 
L 293.817273 215.057491 
L 294.070909 216.029382 
L 294.324545 214.357733 
L 294.578182 214.591426 
L 294.831818 215.553938 
L 295.339091 215.42741 
L 295.592727 215.071611 
L 296.1 215.531488 
L 296.353636 215.163391 
L 296.860909 215.327354 
L 297.114545 214.156127 
L 297.368182 215.6565 
L 297.621818 214.75567 
L 297.875455 215.869475 
L 298.129091 215.399486 
L 298.382727 214.424673 
L 298.89 214.845448 
L 299.143636 214.667302 
L 299.397273 216.207331 
L 299.650909 215.458524 
L 299.904545 215.616835 
L 300.158182 215.544971 
L 300.665455 214.729545 
L 300.919091 215.035431 
L 301.172727 215.007669 
L 301.426364 215.166665 
L 302.187273 214.897841 
L 302.440909 214.211653 
L 302.694545 214.418691 
L 302.948182 214.174606 
L 303.201818 215.275674 
L 303.455455 215.248958 
L 303.709091 214.302825 
L 303.962727 214.426438 
L 304.216364 213.742109 
L 304.47 214.076754 
L 304.723636 215.159338 
L 305.230909 214.983983 
L 305.484545 215.179172 
L 305.991818 214.158826 
L 306.245455 215.824324 
L 306.499091 214.077158 
L 306.752727 213.764834 
L 307.006364 215.010597 
L 307.26 214.725887 
L 307.513636 214.002991 
L 307.767273 214.465654 
L 308.020909 213.794923 
L 308.274545 215.073377 
L 308.528182 214.959417 
L 308.781818 213.97793 
L 309.035455 213.451339 
L 309.289091 214.878926 
L 309.542727 213.944597 
L 309.796364 214.08714 
L 310.05 213.895802 
L 310.303636 214.172178 
L 310.557273 214.803547 
L 311.064545 213.007664 
L 311.318182 214.850775 
L 311.318182 214.850775 
" style="fill:none;stroke:#1f77b4;stroke-linecap:square;stroke-width:2;"/>
   </g>
   <g id="patch_3">
    <path d="M 45 315 
L 45 43.2 
" style="fill:none;stroke:#000000;stroke-linecap:square;stroke-linejoin:miter;stroke-width:0.8;"/>
   </g>
   <g id="patch_4">
    <path d="M 324 315 
L 324 43.2 
" style="fill:none;stroke:#000000;stroke-linecap:square;stroke-linejoin:miter;stroke-width:0.8;"/>
   </g>
   <g id="patch_5">
    <path d="M 45 315 
L 324 315 
" style="fill:none;stroke:#000000;stroke-linecap:square;stroke-linejoin:miter;stroke-width:0.8;"/>
   </g>
   <g id="patch_6">
    <path d="M 45 43.2 
L 324 43.2 
" style="fill:none;stroke:#000000;stroke-linecap:square;stroke-linejoin:miter;stroke-width:0.8;"/>
   </g>
   <g id="text_18">
    <!-- Polymer Pulled By External Force: Rg Change -->
    <defs>
     <path d="M 19.671875 64.796875 
L 19.671875 37.40625 
L 32.078125 37.40625 
Q 38.96875 37.40625 42.71875 40.96875 
Q 46.484375 44.53125 46.484375 51.125 
Q 46.484375 57.671875 42.71875 61.234375 
Q 38.96875 64.796875 32.078125 64.796875 
z
M 9.8125 72.90625 
L 32.078125 72.90625 
Q 44.34375 72.90625 50.609375 67.359375 
Q 56.890625 61.8125 56.890625 51.125 
Q 56.890625 40.328125 50.609375 34.8125 
Q 44.34375 29.296875 32.078125 29.296875 
L 19.671875 29.296875 
L 19.671875 0 
L 9.8125 0 
z
" id="DejaVuSans-80"/>
     <path d="M 30.609375 48.390625 
Q 23.390625 48.390625 19.1875 42.75 
Q 14.984375 37.109375 14.984375 27.296875 
Q 14.984375 17.484375 19.15625 11.84375 
Q 23.34375 6.203125 30.609375 6.203125 
Q 37.796875 6.203125 41.984375 11.859375 
Q 46.1875 17.53125 46.1875 27.296875 
Q 46.1875 37.015625 41.984375 42.703125 
Q 37.796875 48.390625 30.609375 48.390625 
z
M 30.609375 56 
Q 42.328125 56 49.015625 48.375 
Q 55.71875 40.765625 55.71875 27.296875 
Q 55.71875 13.875 49.015625 6.21875 
Q 42.328125 -1.421875 30.609375 -1.421875 
Q 18.84375 -1.421875 12.171875 6.21875 
Q 5.515625 13.875 5.515625 27.296875 
Q 5.515625 40.765625 12.171875 48.375 
Q 18.84375 56 30.609375 56 
z
" id="DejaVuSans-111"/>
     <path d="M 9.421875 75.984375 
L 18.40625 75.984375 
L 18.40625 0 
L 9.421875 0 
z
" id="DejaVuSans-108"/>
     <path d="M 32.171875 -5.078125 
Q 28.375 -14.84375 24.75 -17.8125 
Q 21.140625 -20.796875 15.09375 -20.796875 
L 7.90625 -20.796875 
L 7.90625 -13.28125 
L 13.1875 -13.28125 
Q 16.890625 -13.28125 18.9375 -11.515625 
Q 21 -9.765625 23.484375 -3.21875 
L 25.09375 0.875 
L 2.984375 54.6875 
L 12.5 54.6875 
L 29.59375 11.921875 
L 46.6875 54.6875 
L 56.203125 54.6875 
z
" id="DejaVuSans-121"/>
     <path d="M 41.109375 46.296875 
Q 39.59375 47.171875 37.8125 47.578125 
Q 36.03125 48 33.890625 48 
Q 26.265625 48 22.1875 43.046875 
Q 18.109375 38.09375 18.109375 28.8125 
L 18.109375 0 
L 9.078125 0 
L 9.078125 54.6875 
L 18.109375 54.6875 
L 18.109375 46.1875 
Q 20.953125 51.171875 25.484375 53.578125 
Q 30.03125 56 36.53125 56 
Q 37.453125 56 38.578125 55.875 
Q 39.703125 55.765625 41.0625 55.515625 
z
" id="DejaVuSans-114"/>
     <path d="M 8.5 21.578125 
L 8.5 54.6875 
L 17.484375 54.6875 
L 17.484375 21.921875 
Q 17.484375 14.15625 20.5 10.265625 
Q 23.53125 6.390625 29.59375 6.390625 
Q 36.859375 6.390625 41.078125 11.03125 
Q 45.3125 15.671875 45.3125 23.6875 
L 45.3125 54.6875 
L 54.296875 54.6875 
L 54.296875 0 
L 45.3125 0 
L 45.3125 8.40625 
Q 42.046875 3.421875 37.71875 1 
Q 33.40625 -1.421875 27.6875 -1.421875 
Q 18.265625 -1.421875 13.375 4.4375 
Q 8.5 10.296875 8.5 21.578125 
z
M 31.109375 56 
z
" id="DejaVuSans-117"/>
     <path d="M 45.40625 46.390625 
L 45.40625 75.984375 
L 54.390625 75.984375 
L 54.390625 0 
L 45.40625 0 
L 45.40625 8.203125 
Q 42.578125 3.328125 38.25 0.953125 
Q 33.9375 -1.421875 27.875 -1.421875 
Q 17.96875 -1.421875 11.734375 6.484375 
Q 5.515625 14.40625 5.515625 27.296875 
Q 5.515625 40.1875 11.734375 48.09375 
Q 17.96875 56 27.875 56 
Q 33.9375 56 38.25 53.625 
Q 42.578125 51.265625 45.40625 46.390625 
z
M 14.796875 27.296875 
Q 14.796875 17.390625 18.875 11.75 
Q 22.953125 6.109375 30.078125 6.109375 
Q 37.203125 6.109375 41.296875 11.75 
Q 45.40625 17.390625 45.40625 27.296875 
Q 45.40625 37.203125 41.296875 42.84375 
Q 37.203125 48.484375 30.078125 48.484375 
Q 22.953125 48.484375 18.875 42.84375 
Q 14.796875 37.203125 14.796875 27.296875 
z
" id="DejaVuSans-100"/>
     <path d="M 19.671875 34.8125 
L 19.671875 8.109375 
L 35.5 8.109375 
Q 43.453125 8.109375 47.28125 11.40625 
Q 51.125 14.703125 51.125 21.484375 
Q 51.125 28.328125 47.28125 31.5625 
Q 43.453125 34.8125 35.5 34.8125 
z
M 19.671875 64.796875 
L 19.671875 42.828125 
L 34.28125 42.828125 
Q 41.5 42.828125 45.03125 45.53125 
Q 48.578125 48.25 48.578125 53.8125 
Q 48.578125 59.328125 45.03125 62.0625 
Q 41.5 64.796875 34.28125 64.796875 
z
M 9.8125 72.90625 
L 35.015625 72.90625 
Q 46.296875 72.90625 52.390625 68.21875 
Q 58.5 63.53125 58.5 54.890625 
Q 58.5 48.1875 55.375 44.234375 
Q 52.25 40.28125 46.1875 39.3125 
Q 53.46875 37.75 57.5 32.78125 
Q 61.53125 27.828125 61.53125 20.40625 
Q 61.53125 10.640625 54.890625 5.3125 
Q 48.25 0 35.984375 0 
L 9.8125 0 
z
" id="DejaVuSans-66"/>
     <path d="M 9.8125 72.90625 
L 55.90625 72.90625 
L 55.90625 64.59375 
L 19.671875 64.59375 
L 19.671875 43.015625 
L 54.390625 43.015625 
L 54.390625 34.71875 
L 19.671875 34.71875 
L 19.671875 8.296875 
L 56.78125 8.296875 
L 56.78125 0 
L 9.8125 0 
z
" id="DejaVuSans-69"/>
     <path d="M 54.890625 54.6875 
L 35.109375 28.078125 
L 55.90625 0 
L 45.3125 0 
L 29.390625 21.484375 
L 13.484375 0 
L 2.875 0 
L 24.125 28.609375 
L 4.6875 54.6875 
L 15.28125 54.6875 
L 29.78125 35.203125 
L 44.28125 54.6875 
z
" id="DejaVuSans-120"/>
     <path d="M 54.890625 33.015625 
L 54.890625 0 
L 45.90625 0 
L 45.90625 32.71875 
Q 45.90625 40.484375 42.875 44.328125 
Q 39.84375 48.1875 33.796875 48.1875 
Q 26.515625 48.1875 22.3125 43.546875 
Q 18.109375 38.921875 18.109375 30.90625 
L 18.109375 0 
L 9.078125 0 
L 9.078125 54.6875 
L 18.109375 54.6875 
L 18.109375 46.1875 
Q 21.34375 51.125 25.703125 53.5625 
Q 30.078125 56 35.796875 56 
Q 45.21875 56 50.046875 50.171875 
Q 54.890625 44.34375 54.890625 33.015625 
z
" id="DejaVuSans-110"/>
     <path d="M 34.28125 27.484375 
Q 23.390625 27.484375 19.1875 25 
Q 14.984375 22.515625 14.984375 16.5 
Q 14.984375 11.71875 18.140625 8.90625 
Q 21.296875 6.109375 26.703125 6.109375 
Q 34.1875 6.109375 38.703125 11.40625 
Q 43.21875 16.703125 43.21875 25.484375 
L 43.21875 27.484375 
z
M 52.203125 31.203125 
L 52.203125 0 
L 43.21875 0 
L 43.21875 8.296875 
Q 40.140625 3.328125 35.546875 0.953125 
Q 30.953125 -1.421875 24.3125 -1.421875 
Q 15.921875 -1.421875 10.953125 3.296875 
Q 6 8.015625 6 15.921875 
Q 6 25.140625 12.171875 29.828125 
Q 18.359375 34.515625 30.609375 34.515625 
L 43.21875 34.515625 
L 43.21875 35.40625 
Q 43.21875 41.609375 39.140625 45 
Q 35.0625 48.390625 27.6875 48.390625 
Q 23 48.390625 18.546875 47.265625 
Q 14.109375 46.140625 10.015625 43.890625 
L 10.015625 52.203125 
Q 14.9375 54.109375 19.578125 55.046875 
Q 24.21875 56 28.609375 56 
Q 40.484375 56 46.34375 49.84375 
Q 52.203125 43.703125 52.203125 31.203125 
z
" id="DejaVuSans-97"/>
     <path d="M 9.8125 72.90625 
L 51.703125 72.90625 
L 51.703125 64.59375 
L 19.671875 64.59375 
L 19.671875 43.109375 
L 48.578125 43.109375 
L 48.578125 34.8125 
L 19.671875 34.8125 
L 19.671875 0 
L 9.8125 0 
z
" id="DejaVuSans-70"/>
     <path d="M 48.78125 52.59375 
L 48.78125 44.1875 
Q 44.96875 46.296875 41.140625 47.34375 
Q 37.3125 48.390625 33.40625 48.390625 
Q 24.65625 48.390625 19.8125 42.84375 
Q 14.984375 37.3125 14.984375 27.296875 
Q 14.984375 17.28125 19.8125 11.734375 
Q 24.65625 6.203125 33.40625 6.203125 
Q 37.3125 6.203125 41.140625 7.25 
Q 44.96875 8.296875 48.78125 10.40625 
L 48.78125 2.09375 
Q 45.015625 0.34375 40.984375 -0.53125 
Q 36.96875 -1.421875 32.421875 -1.421875 
Q 20.0625 -1.421875 12.78125 6.34375 
Q 5.515625 14.109375 5.515625 27.296875 
Q 5.515625 40.671875 12.859375 48.328125 
Q 20.21875 56 33.015625 56 
Q 37.15625 56 41.109375 55.140625 
Q 45.0625 54.296875 48.78125 52.59375 
z
" id="DejaVuSans-99"/>
     <path d="M 11.71875 12.40625 
L 22.015625 12.40625 
L 22.015625 0 
L 11.71875 0 
z
M 11.71875 51.703125 
L 22.015625 51.703125 
L 22.015625 39.3125 
L 11.71875 39.3125 
z
" id="DejaVuSans-58"/>
     <path d="M 44.390625 34.1875 
Q 47.5625 33.109375 50.5625 29.59375 
Q 53.5625 26.078125 56.59375 19.921875 
L 66.609375 0 
L 56 0 
L 46.6875 18.703125 
Q 43.0625 26.03125 39.671875 28.421875 
Q 36.28125 30.8125 30.421875 30.8125 
L 19.671875 30.8125 
L 19.671875 0 
L 9.8125 0 
L 9.8125 72.90625 
L 32.078125 72.90625 
Q 44.578125 72.90625 50.734375 67.671875 
Q 56.890625 62.453125 56.890625 51.90625 
Q 56.890625 45.015625 53.6875 40.46875 
Q 50.484375 35.9375 44.390625 34.1875 
z
M 19.671875 64.796875 
L 19.671875 38.921875 
L 32.078125 38.921875 
Q 39.203125 38.921875 42.84375 42.21875 
Q 46.484375 45.515625 46.484375 51.90625 
Q 46.484375 58.296875 42.84375 61.546875 
Q 39.203125 64.796875 32.078125 64.796875 
z
" id="DejaVuSans-82"/>
     <path d="M 45.40625 27.984375 
Q 45.40625 37.75 41.375 43.109375 
Q 37.359375 48.484375 30.078125 48.484375 
Q 22.859375 48.484375 18.828125 43.109375 
Q 14.796875 37.75 14.796875 27.984375 
Q 14.796875 18.265625 18.828125 12.890625 
Q 22.859375 7.515625 30.078125 7.515625 
Q 37.359375 7.515625 41.375 12.890625 
Q 45.40625 18.265625 45.40625 27.984375 
z
M 54.390625 6.78125 
Q 54.390625 -7.171875 48.1875 -13.984375 
Q 42 -20.796875 29.203125 -20.796875 
Q 24.46875 -20.796875 20.265625 -20.09375 
Q 16.0625 -19.390625 12.109375 -17.921875 
L 12.109375 -9.1875 
Q 16.0625 -11.328125 19.921875 -12.34375 
Q 23.78125 -13.375 27.78125 -13.375 
Q 36.625 -13.375 41.015625 -8.765625 
Q 45.40625 -4.15625 45.40625 5.171875 
L 45.40625 9.625 
Q 42.625 4.78125 38.28125 2.390625 
Q 33.9375 0 27.875 0 
Q 17.828125 0 11.671875 7.65625 
Q 5.515625 15.328125 5.515625 27.984375 
Q 5.515625 40.671875 11.671875 48.328125 
Q 17.828125 56 27.875 56 
Q 33.9375 56 38.28125 53.609375 
Q 42.625 51.21875 45.40625 46.390625 
L 45.40625 54.6875 
L 54.390625 54.6875 
z
" id="DejaVuSans-103"/>
     <path d="M 64.40625 67.28125 
L 64.40625 56.890625 
Q 59.421875 61.53125 53.78125 63.8125 
Q 48.140625 66.109375 41.796875 66.109375 
Q 29.296875 66.109375 22.65625 58.46875 
Q 16.015625 50.828125 16.015625 36.375 
Q 16.015625 21.96875 22.65625 14.328125 
Q 29.296875 6.6875 41.796875 6.6875 
Q 48.140625 6.6875 53.78125 8.984375 
Q 59.421875 11.28125 64.40625 15.921875 
L 64.40625 5.609375 
Q 59.234375 2.09375 53.4375 0.328125 
Q 47.65625 -1.421875 41.21875 -1.421875 
Q 24.65625 -1.421875 15.125 8.703125 
Q 5.609375 18.84375 5.609375 36.375 
Q 5.609375 53.953125 15.125 64.078125 
Q 24.65625 74.21875 41.21875 74.21875 
Q 47.75 74.21875 53.53125 72.484375 
Q 59.328125 70.75 64.40625 67.28125 
z
" id="DejaVuSans-67"/>
     <path d="M 54.890625 33.015625 
L 54.890625 0 
L 45.90625 0 
L 45.90625 32.71875 
Q 45.90625 40.484375 42.875 44.328125 
Q 39.84375 48.1875 33.796875 48.1875 
Q 26.515625 48.1875 22.3125 43.546875 
Q 18.109375 38.921875 18.109375 30.90625 
L 18.109375 0 
L 9.078125 0 
L 9.078125 75.984375 
L 18.109375 75.984375 
L 18.109375 46.1875 
Q 21.34375 51.125 25.703125 53.5625 
Q 30.078125 56 35.796875 56 
Q 45.21875 56 50.046875 50.171875 
Q 54.890625 44.34375 54.890625 33.015625 
z
" id="DejaVuSans-104"/>
    </defs>
    <g transform="translate(48.855 37.2)scale(0.12 -0.12)">
     <use xlink:href="#DejaVuSans-80"/>
     <use x="56.677734" xlink:href="#DejaVuSans-111"/>
     <use x="117.859375" xlink:href="#DejaVuSans-108"/>
     <use x="145.642578" xlink:href="#DejaVuSans-121"/>
     <use x="204.822266" xlink:href="#DejaVuSans-109"/>
     <use x="302.234375" xlink:href="#DejaVuSans-101"/>
     <use x="363.757812" xlink:href="#DejaVuSans-114"/>
     <use x="404.871094" xlink:href="#DejaVuSans-32"/>
     <use x="436.658203" xlink:href="#DejaVuSans-80"/>
     <use x="495.210938" xlink:href="#DejaVuSans-117"/>
     <use x="558.589844" xlink:href="#DejaVuSans-108"/>
     <use x="586.373047" xlink:href="#DejaVuSans-108"/>
     <use x="614.15625" xlink:href="#DejaVuSans-101"/>
     <use x="675.679688" xlink:href="#DejaVuSans-100"/>
     <use x="739.15625" xlink:href="#DejaVuSans-32"/>
     <use x="770.943359" xlink:href="#DejaVuSans-66"/>
     <use x="839.546875" xlink:href="#DejaVuSans-121"/>
     <use x="898.726562" xlink:href="#DejaVuSans-32"/>
     <use x="930.513672" xlink:href="#DejaVuSans-69"/>
     <use x="993.697266" xlink:href="#DejaVuSans-120"/>
     <use x="1052.876953" xlink:href="#DejaVuSans-116"/>
     <use x="1092.085938" xlink:href="#DejaVuSans-101"/>
     <use x="1153.609375" xlink:href="#DejaVuSans-114"/>
     <use x="1192.972656" xlink:href="#DejaVuSans-110"/>
     <use x="1256.351562" xlink:href="#DejaVuSans-97"/>
     <use x="1317.630859" xlink:href="#DejaVuSans-108"/>
     <use x="1345.414062" xlink:href="#DejaVuSans-32"/>
     <use x="1377.201172" xlink:href="#DejaVuSans-70"/>
     <use x="1431.095703" xlink:href="#DejaVuSans-111"/>
     <use x="1492.277344" xlink:href="#DejaVuSans-114"/>
     <use x="1531.140625" xlink:href="#DejaVuSans-99"/>
     <use x="1586.121094" xlink:href="#DejaVuSans-101"/>
     <use x="1647.644531" xlink:href="#DejaVuSans-58"/>
     <use x="1681.335938" xlink:href="#DejaVuSans-32"/>
     <use x="1713.123047" xlink:href="#DejaVuSans-82"/>
     <use x="1782.605469" xlink:href="#DejaVuSans-103"/>
     <use x="1846.082031" xlink:href="#DejaVuSans-32"/>
     <use x="1877.869141" xlink:href="#DejaVuSans-67"/>
     <use x="1947.693359" xlink:href="#DejaVuSans-104"/>
     <use x="2011.072266" xlink:href="#DejaVuSans-97"/>
     <use x="2072.351562" xlink:href="#DejaVuSans-110"/>
     <use x="2135.730469" xlink:href="#DejaVuSans-103"/>
     <use x="2199.207031" xlink:href="#DejaVuSans-101"/>
    </g>
   </g>
   <g id="legend_1">
    <g id="patch_7">
     <path d="M 271.703125 65.878125 
L 317 65.878125 
Q 319 65.878125 319 63.878125 
L 319 50.2 
Q 319 48.2 317 48.2 
L 271.703125 48.2 
Q 269.703125 48.2 269.703125 50.2 
L 269.703125 63.878125 
Q 269.703125 65.878125 271.703125 65.878125 
z
" style="fill:#ffffff;opacity:0.8;stroke:#cccccc;stroke-linejoin:miter;"/>
    </g>
    <g id="line2d_17">
     <path d="M 273.703125 56.298437 
L 293.703125 56.298437 
" style="fill:none;stroke:#1f77b4;stroke-linecap:square;stroke-width:2;"/>
    </g>
    <g id="line2d_18"/>
    <g id="text_19">
     <!-- Rg -->
     <g transform="translate(301.703125 59.798437)scale(0.1 -0.1)">
      <use xlink:href="#DejaVuSans-82"/>
      <use x="69.482422" xlink:href="#DejaVuSans-103"/>
     </g>
    </g>
   </g>
  </g>
 </g>
 <defs>
  <clipPath id="pce6c35ae4b">
   <rect height="271.8" width="279" x="45" y="43.2"/>
  </clipPath>
 </defs>
</svg>
