<?xml version="1.0" encoding="utf-8" standalone="no"?>
<!DOCTYPE svg PUBLIC "-//W3C//DTD SVG 1.1//EN"
  "http://www.w3.org/Graphics/SVG/1.1/DTD/svg11.dtd">
<!-- Created with matplotlib (https://matplotlib.org/) -->
<svg height="360pt" version="1.1" viewBox="0 0 360 360" width="360pt" xmlns="http://www.w3.org/2000/svg" xmlns:xlink="http://www.w3.org/1999/xlink">
 <defs>
  <style type="text/css">
*{stroke-linecap:butt;stroke-linejoin:round;}
  </style>
 </defs>
 <g id="figure_1">
  <g id="patch_1">
   <path d="M 0 360 
L 360 360 
L 360 0 
L 0 0 
z
" style="fill:#ffffff;"/>
  </g>
  <g id="axes_1">
   <g id="patch_2">
    <path d="M 45 315 
L 324 315 
L 324 43.2 
L 45 43.2 
z
" style="fill:#ffffff;"/>
   </g>
   <g id="matplotlib.axis_1">
    <g id="xtick_1">
     <g id="line2d_1">
      <defs>
       <path d="M 0 0 
L 0 3.5 
" id="m42116f66af" style="stroke:#000000;stroke-width:0.8;"/>
      </defs>
      <g>
       <use style="stroke:#000000;stroke-width:0.8;" x="57.681818" xlink:href="#m42116f66af" y="315"/>
      </g>
     </g>
     <g id="text_1">
      <!-- 0.0 -->
      <defs>
       <path d="M 31.78125 66.40625 
Q 24.171875 66.40625 20.328125 58.90625 
Q 16.5 51.421875 16.5 36.375 
Q 16.5 21.390625 20.328125 13.890625 
Q 24.171875 6.390625 31.78125 6.390625 
Q 39.453125 6.390625 43.28125 13.890625 
Q 47.125 21.390625 47.125 36.375 
Q 47.125 51.421875 43.28125 58.90625 
Q 39.453125 66.40625 31.78125 66.40625 
z
M 31.78125 74.21875 
Q 44.046875 74.21875 50.515625 64.515625 
Q 56.984375 54.828125 56.984375 36.375 
Q 56.984375 17.96875 50.515625 8.265625 
Q 44.046875 -1.421875 31.78125 -1.421875 
Q 19.53125 -1.421875 13.0625 8.265625 
Q 6.59375 17.96875 6.59375 36.375 
Q 6.59375 54.828125 13.0625 64.515625 
Q 19.53125 74.21875 31.78125 74.21875 
z
" id="DejaVuSans-48"/>
       <path d="M 10.6875 12.40625 
L 21 12.40625 
L 21 0 
L 10.6875 0 
z
" id="DejaVuSans-46"/>
      </defs>
      <g transform="translate(49.730256 329.598437)scale(0.1 -0.1)">
       <use xlink:href="#DejaVuSans-48"/>
       <use x="63.623047" xlink:href="#DejaVuSans-46"/>
       <use x="95.410156" xlink:href="#DejaVuSans-48"/>
      </g>
     </g>
    </g>
    <g id="xtick_2">
     <g id="line2d_2">
      <g>
       <use style="stroke:#000000;stroke-width:0.8;" x="108.409091" xlink:href="#m42116f66af" y="315"/>
      </g>
     </g>
     <g id="text_2">
      <!-- 0.2 -->
      <defs>
       <path d="M 19.1875 8.296875 
L 53.609375 8.296875 
L 53.609375 0 
L 7.328125 0 
L 7.328125 8.296875 
Q 12.9375 14.109375 22.625 23.890625 
Q 32.328125 33.6875 34.8125 36.53125 
Q 39.546875 41.84375 41.421875 45.53125 
Q 43.3125 49.21875 43.3125 52.78125 
Q 43.3125 58.59375 39.234375 62.25 
Q 35.15625 65.921875 28.609375 65.921875 
Q 23.96875 65.921875 18.8125 64.3125 
Q 13.671875 62.703125 7.8125 59.421875 
L 7.8125 69.390625 
Q 13.765625 71.78125 18.9375 73 
Q 24.125 74.21875 28.421875 74.21875 
Q 39.75 74.21875 46.484375 68.546875 
Q 53.21875 62.890625 53.21875 53.421875 
Q 53.21875 48.921875 51.53125 44.890625 
Q 49.859375 40.875 45.40625 35.40625 
Q 44.1875 33.984375 37.640625 27.21875 
Q 31.109375 20.453125 19.1875 8.296875 
z
" id="DejaVuSans-50"/>
      </defs>
      <g transform="translate(100.457528 329.598437)scale(0.1 -0.1)">
       <use xlink:href="#DejaVuSans-48"/>
       <use x="63.623047" xlink:href="#DejaVuSans-46"/>
       <use x="95.410156" xlink:href="#DejaVuSans-50"/>
      </g>
     </g>
    </g>
    <g id="xtick_3">
     <g id="line2d_3">
      <g>
       <use style="stroke:#000000;stroke-width:0.8;" x="159.136364" xlink:href="#m42116f66af" y="315"/>
      </g>
     </g>
     <g id="text_3">
      <!-- 0.4 -->
      <defs>
       <path d="M 37.796875 64.3125 
L 12.890625 25.390625 
L 37.796875 25.390625 
z
M 35.203125 72.90625 
L 47.609375 72.90625 
L 47.609375 25.390625 
L 58.015625 25.390625 
L 58.015625 17.1875 
L 47.609375 17.1875 
L 47.609375 0 
L 37.796875 0 
L 37.796875 17.1875 
L 4.890625 17.1875 
L 4.890625 26.703125 
z
" id="DejaVuSans-52"/>
      </defs>
      <g transform="translate(151.184801 329.598437)scale(0.1 -0.1)">
       <use xlink:href="#DejaVuSans-48"/>
       <use x="63.623047" xlink:href="#DejaVuSans-46"/>
       <use x="95.410156" xlink:href="#DejaVuSans-52"/>
      </g>
     </g>
    </g>
    <g id="xtick_4">
     <g id="line2d_4">
      <g>
       <use style="stroke:#000000;stroke-width:0.8;" x="209.863636" xlink:href="#m42116f66af" y="315"/>
      </g>
     </g>
     <g id="text_4">
      <!-- 0.6 -->
      <defs>
       <path d="M 33.015625 40.375 
Q 26.375 40.375 22.484375 35.828125 
Q 18.609375 31.296875 18.609375 23.390625 
Q 18.609375 15.53125 22.484375 10.953125 
Q 26.375 6.390625 33.015625 6.390625 
Q 39.65625 6.390625 43.53125 10.953125 
Q 47.40625 15.53125 47.40625 23.390625 
Q 47.40625 31.296875 43.53125 35.828125 
Q 39.65625 40.375 33.015625 40.375 
z
M 52.59375 71.296875 
L 52.59375 62.3125 
Q 48.875 64.0625 45.09375 64.984375 
Q 41.3125 65.921875 37.59375 65.921875 
Q 27.828125 65.921875 22.671875 59.328125 
Q 17.53125 52.734375 16.796875 39.40625 
Q 19.671875 43.65625 24.015625 45.921875 
Q 28.375 48.1875 33.59375 48.1875 
Q 44.578125 48.1875 50.953125 41.515625 
Q 57.328125 34.859375 57.328125 23.390625 
Q 57.328125 12.15625 50.6875 5.359375 
Q 44.046875 -1.421875 33.015625 -1.421875 
Q 20.359375 -1.421875 13.671875 8.265625 
Q 6.984375 17.96875 6.984375 36.375 
Q 6.984375 53.65625 15.1875 63.9375 
Q 23.390625 74.21875 37.203125 74.21875 
Q 40.921875 74.21875 44.703125 73.484375 
Q 48.484375 72.75 52.59375 71.296875 
z
" id="DejaVuSans-54"/>
      </defs>
      <g transform="translate(201.912074 329.598437)scale(0.1 -0.1)">
       <use xlink:href="#DejaVuSans-48"/>
       <use x="63.623047" xlink:href="#DejaVuSans-46"/>
       <use x="95.410156" xlink:href="#DejaVuSans-54"/>
      </g>
     </g>
    </g>
    <g id="xtick_5">
     <g id="line2d_5">
      <g>
       <use style="stroke:#000000;stroke-width:0.8;" x="260.590909" xlink:href="#m42116f66af" y="315"/>
      </g>
     </g>
     <g id="text_5">
      <!-- 0.8 -->
      <defs>
       <path d="M 31.78125 34.625 
Q 24.75 34.625 20.71875 30.859375 
Q 16.703125 27.09375 16.703125 20.515625 
Q 16.703125 13.921875 20.71875 10.15625 
Q 24.75 6.390625 31.78125 6.390625 
Q 38.8125 6.390625 42.859375 10.171875 
Q 46.921875 13.96875 46.921875 20.515625 
Q 46.921875 27.09375 42.890625 30.859375 
Q 38.875 34.625 31.78125 34.625 
z
M 21.921875 38.8125 
Q 15.578125 40.375 12.03125 44.71875 
Q 8.5 49.078125 8.5 55.328125 
Q 8.5 64.0625 14.71875 69.140625 
Q 20.953125 74.21875 31.78125 74.21875 
Q 42.671875 74.21875 48.875 69.140625 
Q 55.078125 64.0625 55.078125 55.328125 
Q 55.078125 49.078125 51.53125 44.71875 
Q 48 40.375 41.703125 38.8125 
Q 48.828125 37.15625 52.796875 32.3125 
Q 56.78125 27.484375 56.78125 20.515625 
Q 56.78125 9.90625 50.3125 4.234375 
Q 43.84375 -1.421875 31.78125 -1.421875 
Q 19.734375 -1.421875 13.25 4.234375 
Q 6.78125 9.90625 6.78125 20.515625 
Q 6.78125 27.484375 10.78125 32.3125 
Q 14.796875 37.15625 21.921875 38.8125 
z
M 18.3125 54.390625 
Q 18.3125 48.734375 21.84375 45.5625 
Q 25.390625 42.390625 31.78125 42.390625 
Q 38.140625 42.390625 41.71875 45.5625 
Q 45.3125 48.734375 45.3125 54.390625 
Q 45.3125 60.0625 41.71875 63.234375 
Q 38.140625 66.40625 31.78125 66.40625 
Q 25.390625 66.40625 21.84375 63.234375 
Q 18.3125 60.0625 18.3125 54.390625 
z
" id="DejaVuSans-56"/>
      </defs>
      <g transform="translate(252.639347 329.598437)scale(0.1 -0.1)">
       <use xlink:href="#DejaVuSans-48"/>
       <use x="63.623047" xlink:href="#DejaVuSans-46"/>
       <use x="95.410156" xlink:href="#DejaVuSans-56"/>
      </g>
     </g>
    </g>
    <g id="xtick_6">
     <g id="line2d_6">
      <g>
       <use style="stroke:#000000;stroke-width:0.8;" x="311.318182" xlink:href="#m42116f66af" y="315"/>
      </g>
     </g>
     <g id="text_6">
      <!-- 1.0 -->
      <defs>
       <path d="M 12.40625 8.296875 
L 28.515625 8.296875 
L 28.515625 63.921875 
L 10.984375 60.40625 
L 10.984375 69.390625 
L 28.421875 72.90625 
L 38.28125 72.90625 
L 38.28125 8.296875 
L 54.390625 8.296875 
L 54.390625 0 
L 12.40625 0 
z
" id="DejaVuSans-49"/>
      </defs>
      <g transform="translate(303.366619 329.598437)scale(0.1 -0.1)">
       <use xlink:href="#DejaVuSans-49"/>
       <use x="63.623047" xlink:href="#DejaVuSans-46"/>
       <use x="95.410156" xlink:href="#DejaVuSans-48"/>
      </g>
     </g>
    </g>
    <g id="text_7">
     <!-- Time Step -->
     <defs>
      <path d="M -0.296875 72.90625 
L 61.375 72.90625 
L 61.375 64.59375 
L 35.5 64.59375 
L 35.5 0 
L 25.59375 0 
L 25.59375 64.59375 
L -0.296875 64.59375 
z
" id="DejaVuSans-84"/>
      <path d="M 9.421875 54.6875 
L 18.40625 54.6875 
L 18.40625 0 
L 9.421875 0 
z
M 9.421875 75.984375 
L 18.40625 75.984375 
L 18.40625 64.59375 
L 9.421875 64.59375 
z
" id="DejaVuSans-105"/>
      <path d="M 52 44.1875 
Q 55.375 50.25 60.0625 53.125 
Q 64.75 56 71.09375 56 
Q 79.640625 56 84.28125 50.015625 
Q 88.921875 44.046875 88.921875 33.015625 
L 88.921875 0 
L 79.890625 0 
L 79.890625 32.71875 
Q 79.890625 40.578125 77.09375 44.375 
Q 74.3125 48.1875 68.609375 48.1875 
Q 61.625 48.1875 57.5625 43.546875 
Q 53.515625 38.921875 53.515625 30.90625 
L 53.515625 0 
L 44.484375 0 
L 44.484375 32.71875 
Q 44.484375 40.625 41.703125 44.40625 
Q 38.921875 48.1875 33.109375 48.1875 
Q 26.21875 48.1875 22.15625 43.53125 
Q 18.109375 38.875 18.109375 30.90625 
L 18.109375 0 
L 9.078125 0 
L 9.078125 54.6875 
L 18.109375 54.6875 
L 18.109375 46.1875 
Q 21.1875 51.21875 25.484375 53.609375 
Q 29.78125 56 35.6875 56 
Q 41.65625 56 45.828125 52.96875 
Q 50 49.953125 52 44.1875 
z
" id="DejaVuSans-109"/>
      <path d="M 56.203125 29.59375 
L 56.203125 25.203125 
L 14.890625 25.203125 
Q 15.484375 15.921875 20.484375 11.0625 
Q 25.484375 6.203125 34.421875 6.203125 
Q 39.59375 6.203125 44.453125 7.46875 
Q 49.3125 8.734375 54.109375 11.28125 
L 54.109375 2.78125 
Q 49.265625 0.734375 44.1875 -0.34375 
Q 39.109375 -1.421875 33.890625 -1.421875 
Q 20.796875 -1.421875 13.15625 6.1875 
Q 5.515625 13.8125 5.515625 26.8125 
Q 5.515625 40.234375 12.765625 48.109375 
Q 20.015625 56 32.328125 56 
Q 43.359375 56 49.78125 48.890625 
Q 56.203125 41.796875 56.203125 29.59375 
z
M 47.21875 32.234375 
Q 47.125 39.59375 43.09375 43.984375 
Q 39.0625 48.390625 32.421875 48.390625 
Q 24.90625 48.390625 20.390625 44.140625 
Q 15.875 39.890625 15.1875 32.171875 
z
" id="DejaVuSans-101"/>
      <path id="DejaVuSans-32"/>
      <path d="M 53.515625 70.515625 
L 53.515625 60.890625 
Q 47.90625 63.578125 42.921875 64.890625 
Q 37.9375 66.21875 33.296875 66.21875 
Q 25.25 66.21875 20.875 63.09375 
Q 16.5 59.96875 16.5 54.203125 
Q 16.5 49.359375 19.40625 46.890625 
Q 22.3125 44.4375 30.421875 42.921875 
L 36.375 41.703125 
Q 47.40625 39.59375 52.65625 34.296875 
Q 57.90625 29 57.90625 20.125 
Q 57.90625 9.515625 50.796875 4.046875 
Q 43.703125 -1.421875 29.984375 -1.421875 
Q 24.8125 -1.421875 18.96875 -0.25 
Q 13.140625 0.921875 6.890625 3.21875 
L 6.890625 13.375 
Q 12.890625 10.015625 18.65625 8.296875 
Q 24.421875 6.59375 29.984375 6.59375 
Q 38.421875 6.59375 43.015625 9.90625 
Q 47.609375 13.234375 47.609375 19.390625 
Q 47.609375 24.75 44.3125 27.78125 
Q 41.015625 30.8125 33.5 32.328125 
L 27.484375 33.5 
Q 16.453125 35.6875 11.515625 40.375 
Q 6.59375 45.0625 6.59375 53.421875 
Q 6.59375 63.09375 13.40625 68.65625 
Q 20.21875 74.21875 32.171875 74.21875 
Q 37.3125 74.21875 42.625 73.28125 
Q 47.953125 72.359375 53.515625 70.515625 
z
" id="DejaVuSans-83"/>
      <path d="M 18.3125 70.21875 
L 18.3125 54.6875 
L 36.8125 54.6875 
L 36.8125 47.703125 
L 18.3125 47.703125 
L 18.3125 18.015625 
Q 18.3125 11.328125 20.140625 9.421875 
Q 21.96875 7.515625 27.59375 7.515625 
L 36.8125 7.515625 
L 36.8125 0 
L 27.59375 0 
Q 17.1875 0 13.234375 3.875 
Q 9.28125 7.765625 9.28125 18.015625 
L 9.28125 47.703125 
L 2.6875 47.703125 
L 2.6875 54.6875 
L 9.28125 54.6875 
L 9.28125 70.21875 
z
" id="DejaVuSans-116"/>
      <path d="M 18.109375 8.203125 
L 18.109375 -20.796875 
L 9.078125 -20.796875 
L 9.078125 54.6875 
L 18.109375 54.6875 
L 18.109375 46.390625 
Q 20.953125 51.265625 25.265625 53.625 
Q 29.59375 56 35.59375 56 
Q 45.5625 56 51.78125 48.09375 
Q 58.015625 40.1875 58.015625 27.296875 
Q 58.015625 14.40625 51.78125 6.484375 
Q 45.5625 -1.421875 35.59375 -1.421875 
Q 29.59375 -1.421875 25.265625 0.953125 
Q 20.953125 3.328125 18.109375 8.203125 
z
M 48.6875 27.296875 
Q 48.6875 37.203125 44.609375 42.84375 
Q 40.53125 48.484375 33.40625 48.484375 
Q 26.265625 48.484375 22.1875 42.84375 
Q 18.109375 37.203125 18.109375 27.296875 
Q 18.109375 17.390625 22.1875 11.75 
Q 26.265625 6.109375 33.40625 6.109375 
Q 40.53125 6.109375 44.609375 11.75 
Q 48.6875 17.390625 48.6875 27.296875 
z
" id="DejaVuSans-112"/>
     </defs>
     <g transform="translate(159.138281 343.276563)scale(0.1 -0.1)">
      <use xlink:href="#DejaVuSans-84"/>
      <use x="61.037109" xlink:href="#DejaVuSans-105"/>
      <use x="88.820312" xlink:href="#DejaVuSans-109"/>
      <use x="186.232422" xlink:href="#DejaVuSans-101"/>
      <use x="247.755859" xlink:href="#DejaVuSans-32"/>
      <use x="279.542969" xlink:href="#DejaVuSans-83"/>
      <use x="343.019531" xlink:href="#DejaVuSans-116"/>
      <use x="382.228516" xlink:href="#DejaVuSans-101"/>
      <use x="443.751953" xlink:href="#DejaVuSans-112"/>
     </g>
    </g>
    <g id="text_8">
     <!-- 1e7 -->
     <defs>
      <path d="M 8.203125 72.90625 
L 55.078125 72.90625 
L 55.078125 68.703125 
L 28.609375 0 
L 18.3125 0 
L 43.21875 64.59375 
L 8.203125 64.59375 
z
" id="DejaVuSans-55"/>
     </defs>
     <g transform="translate(305.121875 342.276563)scale(0.1 -0.1)">
      <use xlink:href="#DejaVuSans-49"/>
      <use x="63.623047" xlink:href="#DejaVuSans-101"/>
      <use x="125.146484" xlink:href="#DejaVuSans-55"/>
     </g>
    </g>
   </g>
   <g id="matplotlib.axis_2">
    <g id="ytick_1">
     <g id="line2d_7">
      <defs>
       <path d="M 0 0 
L -3.5 0 
" id="ma97af5ac75" style="stroke:#000000;stroke-width:0.8;"/>
      </defs>
      <g>
       <use style="stroke:#000000;stroke-width:0.8;" x="45" xlink:href="#ma97af5ac75" y="305.902774"/>
      </g>
     </g>
     <g id="text_9">
      <!-- 0 -->
      <g transform="translate(31.6375 309.701992)scale(0.1 -0.1)">
       <use xlink:href="#DejaVuSans-48"/>
      </g>
     </g>
    </g>
    <g id="ytick_2">
     <g id="line2d_8">
      <g>
       <use style="stroke:#000000;stroke-width:0.8;" x="45" xlink:href="#ma97af5ac75" y="265.696083"/>
      </g>
     </g>
     <g id="text_10">
      <!-- 2 -->
      <g transform="translate(31.6375 269.495301)scale(0.1 -0.1)">
       <use xlink:href="#DejaVuSans-50"/>
      </g>
     </g>
    </g>
    <g id="ytick_3">
     <g id="line2d_9">
      <g>
       <use style="stroke:#000000;stroke-width:0.8;" x="45" xlink:href="#ma97af5ac75" y="225.489392"/>
      </g>
     </g>
     <g id="text_11">
      <!-- 4 -->
      <g transform="translate(31.6375 229.28861)scale(0.1 -0.1)">
       <use xlink:href="#DejaVuSans-52"/>
      </g>
     </g>
    </g>
    <g id="ytick_4">
     <g id="line2d_10">
      <g>
       <use style="stroke:#000000;stroke-width:0.8;" x="45" xlink:href="#ma97af5ac75" y="185.282701"/>
      </g>
     </g>
     <g id="text_12">
      <!-- 6 -->
      <g transform="translate(31.6375 189.081919)scale(0.1 -0.1)">
       <use xlink:href="#DejaVuSans-54"/>
      </g>
     </g>
    </g>
    <g id="ytick_5">
     <g id="line2d_11">
      <g>
       <use style="stroke:#000000;stroke-width:0.8;" x="45" xlink:href="#ma97af5ac75" y="145.07601"/>
      </g>
     </g>
     <g id="text_13">
      <!-- 8 -->
      <g transform="translate(31.6375 148.875228)scale(0.1 -0.1)">
       <use xlink:href="#DejaVuSans-56"/>
      </g>
     </g>
    </g>
    <g id="ytick_6">
     <g id="line2d_12">
      <g>
       <use style="stroke:#000000;stroke-width:0.8;" x="45" xlink:href="#ma97af5ac75" y="104.869319"/>
      </g>
     </g>
     <g id="text_14">
      <!-- 10 -->
      <g transform="translate(25.275 108.668537)scale(0.1 -0.1)">
       <use xlink:href="#DejaVuSans-49"/>
       <use x="63.623047" xlink:href="#DejaVuSans-48"/>
      </g>
     </g>
    </g>
    <g id="ytick_7">
     <g id="line2d_13">
      <g>
       <use style="stroke:#000000;stroke-width:0.8;" x="45" xlink:href="#ma97af5ac75" y="64.662628"/>
      </g>
     </g>
     <g id="text_15">
      <!-- 12 -->
      <g transform="translate(25.275 68.461847)scale(0.1 -0.1)">
       <use xlink:href="#DejaVuSans-49"/>
       <use x="63.623047" xlink:href="#DejaVuSans-50"/>
      </g>
     </g>
    </g>
   </g>
   <g id="line2d_14">
    <path clip-path="url(#p5658c09995)" d="M 57.681818 302.645455 
L 57.935455 295.566948 
L 58.189091 299.31648 
L 58.442727 297.322731 
L 58.696364 300.480833 
L 58.95 300.098031 
L 59.203636 291.801302 
L 59.457273 302.140015 
L 59.710909 297.102216 
L 59.964545 301.23439 
L 60.218182 299.015716 
L 60.471818 301.616918 
L 60.725455 295.717383 
L 60.979091 292.588109 
L 61.232727 295.305564 
L 61.486364 291.57116 
L 61.74 278.423045 
L 61.993636 286.936571 
L 62.247273 286.231885 
L 62.500909 294.653091 
L 62.754545 294.649587 
L 63.008182 293.889375 
L 63.261818 281.963035 
L 63.515455 295.956952 
L 64.022727 278.70268 
L 64.53 287.861346 
L 64.783636 272.091571 
L 65.037273 286.891109 
L 65.290909 285.046636 
L 65.544545 276.291028 
L 65.798182 276.653032 
L 66.051818 277.817754 
L 66.305455 274.118285 
L 66.559091 273.581608 
L 66.812727 281.918805 
L 67.066364 281.87114 
L 67.32 272.255025 
L 67.827273 270.905177 
L 68.080909 260.607954 
L 68.334545 275.189797 
L 68.588182 264.650384 
L 69.095455 270.793382 
L 69.349091 264.552052 
L 69.602727 263.638039 
L 69.856364 260.138508 
L 70.11 259.021212 
L 70.363636 254.811058 
L 70.617273 262.360826 
L 70.870909 258.568506 
L 71.124545 257.472252 
L 71.378182 264.841899 
L 71.631818 253.205645 
L 71.885455 248.512863 
L 72.139091 261.789272 
L 72.392727 247.565721 
L 72.646364 254.97546 
L 72.9 258.558075 
L 73.153636 255.921952 
L 73.407273 255.387324 
L 73.660909 262.153027 
L 73.914545 250.48737 
L 74.168182 248.238992 
L 74.421818 251.981967 
L 74.675455 250.27171 
L 74.929091 254.520758 
L 75.182727 256.637974 
L 75.436364 241.48813 
L 75.69 248.422112 
L 76.197273 229.820619 
L 76.450909 243.281629 
L 76.704545 237.772144 
L 76.958182 236.39626 
L 77.211818 237.634348 
L 77.465455 248.056605 
L 77.719091 247.110955 
L 77.972727 235.643045 
L 78.226364 236.965633 
L 78.48 231.991963 
L 78.733636 240.283416 
L 78.987273 228.665686 
L 79.240909 239.030018 
L 79.494545 242.373097 
L 79.748182 222.178528 
L 80.001818 238.591454 
L 80.255455 234.710045 
L 80.509091 234.724432 
L 80.762727 231.534284 
L 81.016364 219.671452 
L 81.27 222.964998 
L 81.523636 217.285946 
L 81.777273 217.820557 
L 82.030909 219.747994 
L 82.284545 225.44493 
L 82.538182 227.037217 
L 82.791818 219.165958 
L 83.045455 222.656991 
L 83.299091 221.024865 
L 83.552727 212.040061 
L 83.806364 223.013324 
L 84.06 218.171789 
L 84.313636 206.813436 
L 84.567273 216.235043 
L 84.820909 207.069058 
L 85.328182 215.942873 
L 85.581818 212.361537 
L 85.835455 223.674675 
L 86.089091 209.791151 
L 86.342727 217.742935 
L 86.596364 217.360633 
L 86.85 202.320401 
L 87.103636 211.028059 
L 87.357273 212.240912 
L 87.610909 203.514484 
L 87.864545 211.24348 
L 88.118182 201.331727 
L 88.371818 200.898648 
L 88.625455 198.624938 
L 88.879091 208.102941 
L 89.386364 201.366979 
L 89.64 206.258479 
L 89.893636 207.179216 
L 90.147273 192.384749 
L 90.400909 194.259866 
L 90.654545 207.356301 
L 91.161818 193.160311 
L 91.415455 196.349581 
L 91.669091 197.133089 
L 91.922727 197.527638 
L 92.176364 195.286282 
L 92.43 203.501866 
L 92.683636 190.006158 
L 93.190909 194.518494 
L 93.444545 192.082479 
L 93.698182 191.997999 
L 93.951818 201.489812 
L 94.205455 191.961265 
L 94.459091 189.336435 
L 94.712727 185.055227 
L 95.22 191.829479 
L 95.980909 184.07843 
L 96.234545 189.898813 
L 96.488182 185.650095 
L 96.741818 187.589036 
L 96.995455 179.528993 
L 97.249091 182.818541 
L 97.502727 184.332691 
L 97.756364 195.823442 
L 98.01 178.982655 
L 98.263636 184.617324 
L 98.517273 177.900159 
L 98.770909 177.897565 
L 99.024545 177.00886 
L 99.278182 182.711683 
L 99.531818 176.682877 
L 99.785455 184.82398 
L 100.292727 176.877093 
L 100.546364 182.199019 
L 100.8 178.19875 
L 101.053636 168.569798 
L 101.307273 169.451862 
L 101.560909 164.296729 
L 101.814545 178.342951 
L 102.068182 170.184688 
L 102.321818 177.507873 
L 102.829091 168.037623 
L 103.082727 162.897524 
L 103.336364 172.758239 
L 103.59 171.859089 
L 103.843636 167.225101 
L 104.350909 162.499959 
L 104.604545 167.438362 
L 104.858182 168.712207 
L 105.111818 168.810352 
L 105.365455 158.458491 
L 105.619091 173.704125 
L 106.126364 160.107882 
L 106.38 161.564768 
L 106.633636 165.46898 
L 106.887273 160.851493 
L 107.394545 161.83789 
L 107.648182 160.310074 
L 107.901818 169.279284 
L 108.155455 159.853327 
L 108.409091 158.02228 
L 108.662727 153.524409 
L 109.423636 160.018803 
L 109.930909 158.002173 
L 110.438182 145.003241 
L 110.691818 147.935616 
L 111.199091 155.494674 
L 111.452727 155.431572 
L 111.706364 151.754063 
L 111.96 154.165962 
L 112.213636 146.005234 
L 112.467273 151.105573 
L 112.720909 147.035497 
L 113.228182 153.782228 
L 113.481818 146.412236 
L 113.735455 148.093179 
L 113.989091 153.366537 
L 114.242727 148.836547 
L 114.496364 152.620029 
L 114.75 149.855478 
L 115.003636 143.964496 
L 115.257273 148.554668 
L 115.764545 141.849027 
L 116.271818 143.744714 
L 116.525455 135.894588 
L 116.779091 143.002059 
L 117.032727 145.256999 
L 117.54 139.869503 
L 118.047273 143.59029 
L 118.300909 142.434793 
L 118.554545 135.594295 
L 119.061818 148.544808 
L 119.315455 138.998413 
L 119.569091 140.282069 
L 119.822727 134.423192 
L 120.076364 141.397345 
L 120.33 138.164327 
L 120.583636 128.517047 
L 120.837273 135.295797 
L 121.090909 137.036357 
L 121.344545 132.31412 
L 121.598182 130.899333 
L 121.851818 132.464446 
L 122.105455 135.723638 
L 122.359091 133.044212 
L 122.612727 128.242995 
L 123.12 133.135831 
L 123.373636 132.580452 
L 123.627273 136.16973 
L 123.880909 130.651141 
L 124.134545 132.003595 
L 124.388182 130.537828 
L 124.641818 132.959353 
L 124.895455 118.904759 
L 125.149091 127.381554 
L 125.402727 126.613109 
L 125.656364 133.299781 
L 125.91 129.47239 
L 126.163636 119.195392 
L 126.417273 126.208454 
L 126.670909 124.77361 
L 126.924545 128.04774 
L 127.178182 122.683018 
L 127.431818 124.508057 
L 127.685455 124.669353 
L 127.939091 122.963579 
L 128.192727 129.539441 
L 128.446364 124.226838 
L 128.7 129.292719 
L 128.953636 117.320602 
L 129.207273 125.142786 
L 129.460909 127.968675 
L 129.968182 113.094234 
L 130.221818 125.065718 
L 130.475455 123.340049 
L 130.729091 127.311223 
L 130.982727 120.387709 
L 131.236364 126.482228 
L 131.49 112.979731 
L 131.743636 113.401262 
L 131.997273 111.24899 
L 132.250909 115.974973 
L 132.504545 113.594663 
L 133.011818 122.962936 
L 133.265455 120.521479 
L 133.519091 119.295118 
L 133.772727 114.855207 
L 134.28 117.873089 
L 134.533636 110.01032 
L 134.787273 116.473566 
L 135.040909 117.770289 
L 135.294545 116.074918 
L 135.548182 119.250169 
L 135.801818 108.95519 
L 136.055455 121.890629 
L 136.309091 107.673906 
L 136.562727 114.574268 
L 136.816364 108.896253 
L 137.07 106.597707 
L 137.323636 115.95609 
L 137.577273 111.28614 
L 137.830909 108.78925 
L 138.084545 109.594067 
L 138.338182 108.069074 
L 138.845455 112.833259 
L 139.099091 111.641297 
L 139.352727 114.65889 
L 139.606364 106.947951 
L 139.86 111.98629 
L 140.113636 101.697068 
L 140.367273 106.720642 
L 140.620909 103.95441 
L 140.874545 103.402167 
L 141.128182 107.733997 
L 141.381818 106.750158 
L 141.635455 107.035684 
L 141.889091 106.152474 
L 142.142727 106.812107 
L 142.396364 108.797348 
L 142.65 105.265813 
L 142.903636 110.452345 
L 143.410909 102.638347 
L 143.664545 103.003509 
L 143.918182 101.037438 
L 144.171818 103.760982 
L 144.425455 108.520292 
L 144.679091 103.325747 
L 144.932727 107.142769 
L 145.186364 100.351696 
L 145.44 101.727779 
L 145.693636 97.368709 
L 146.200909 104.26199 
L 146.454545 101.034511 
L 146.708182 103.302053 
L 146.961818 101.490255 
L 147.215455 98.861434 
L 147.469091 100.181992 
L 147.722727 99.89254 
L 147.976364 98.353839 
L 148.23 106.312344 
L 148.483636 97.031963 
L 148.737273 95.955693 
L 148.990909 98.763237 
L 149.244545 96.559472 
L 149.498182 95.921938 
L 149.751818 94.879436 
L 150.005455 98.036752 
L 150.259091 98.466986 
L 150.512727 92.413073 
L 150.766364 95.539813 
L 151.02 93.313822 
L 151.527273 98.875367 
L 151.780909 92.563003 
L 152.034545 91.849124 
L 152.541818 96.423694 
L 152.795455 93.240367 
L 153.049091 87.273918 
L 153.302727 93.473676 
L 153.556364 90.964631 
L 153.81 93.308882 
L 154.063636 89.844958 
L 154.317273 92.009681 
L 154.570909 96.239821 
L 154.824545 92.354601 
L 155.078182 90.942217 
L 155.331818 85.931054 
L 155.585455 90.108657 
L 155.839091 88.598771 
L 156.092727 94.883983 
L 156.346364 90.729608 
L 156.6 91.610556 
L 156.853636 91.698972 
L 157.107273 84.887074 
L 157.360909 85.850734 
L 157.868182 90.8707 
L 158.121818 91.251881 
L 158.375455 87.197116 
L 158.629091 87.914049 
L 158.882727 89.636184 
L 159.136364 82.460762 
L 159.39 90.450284 
L 159.643636 84.622291 
L 159.897273 90.949977 
L 160.150909 84.889249 
L 160.404545 88.902422 
L 160.658182 82.451959 
L 160.911818 84.049408 
L 161.165455 88.376214 
L 161.926364 82.684289 
L 162.18 84.019327 
L 162.433636 81.777564 
L 162.687273 88.332773 
L 162.940909 85.520906 
L 163.194545 80.279989 
L 163.448182 79.065319 
L 163.701818 79.481353 
L 163.955455 81.37626 
L 164.209091 79.095022 
L 164.462727 84.883843 
L 164.716364 83.585541 
L 164.97 80.45674 
L 165.223636 81.721772 
L 165.477273 77.597478 
L 165.730909 83.210473 
L 165.984545 81.596282 
L 166.238182 80.939183 
L 166.491818 75.544535 
L 166.745455 77.234914 
L 166.999091 76.177323 
L 167.252727 77.332022 
L 167.506364 79.706835 
L 167.76 84.277838 
L 168.013636 79.071953 
L 168.267273 81.406223 
L 168.520909 78.863123 
L 168.774545 78.228268 
L 169.028182 80.995029 
L 169.281818 77.306708 
L 169.535455 82.080561 
L 169.789091 75.962057 
L 170.042727 78.978431 
L 170.296364 78.763608 
L 170.55 81.869628 
L 170.803636 71.713777 
L 171.310909 79.719209 
L 171.564545 78.95272 
L 171.818182 77.483251 
L 172.071818 79.904417 
L 172.325455 74.391293 
L 172.832727 77.475606 
L 173.086364 74.372517 
L 173.34 73.75867 
L 173.593636 74.552585 
L 173.847273 74.852627 
L 174.100909 72.714128 
L 174.354545 74.574549 
L 174.608182 73.768698 
L 174.861818 77.624048 
L 175.115455 70.331849 
L 175.369091 74.393207 
L 175.622727 73.441701 
L 176.13 79.468695 
L 176.383636 73.112415 
L 176.890909 76.254432 
L 177.144545 73.491545 
L 177.398182 74.394964 
L 177.651818 73.764336 
L 177.905455 71.994263 
L 178.159091 71.911642 
L 178.412727 72.270979 
L 178.666364 73.005613 
L 178.92 69.818259 
L 179.173636 76.949947 
L 179.427273 77.233827 
L 179.680909 70.567006 
L 179.934545 72.459739 
L 180.188182 75.27061 
L 180.441818 67.168996 
L 180.695455 74.468523 
L 180.949091 70.283145 
L 181.202727 71.25605 
L 181.456364 69.556677 
L 181.71 68.619443 
L 181.963636 69.984991 
L 182.217273 73.683906 
L 182.470909 71.739753 
L 182.724545 66.654005 
L 182.978182 65.292998 
L 183.231818 66.809876 
L 183.485455 72.257469 
L 183.992727 67.817098 
L 184.246364 66.340208 
L 184.5 68.844138 
L 184.753636 65.791808 
L 185.007273 71.246245 
L 185.260909 63.536848 
L 185.768182 69.726234 
L 186.021818 66.825635 
L 186.275455 66.374468 
L 186.529091 68.38853 
L 186.782727 65.45486 
L 187.036364 65.911223 
L 187.29 68.56088 
L 187.543636 64.698696 
L 188.050909 68.555626 
L 188.304545 66.524226 
L 188.558182 66.811906 
L 188.811818 63.339325 
L 189.065455 65.233711 
L 189.319091 68.383137 
L 189.572727 63.324022 
L 189.826364 65.616299 
L 190.08 65.64167 
L 190.587273 64.296442 
L 190.840909 67.106942 
L 191.094545 64.538635 
L 191.348182 63.933893 
L 191.601818 61.702362 
L 191.855455 64.917189 
L 192.109091 65.71283 
L 192.362727 63.817472 
L 192.616364 65.339871 
L 192.87 62.002471 
L 193.123636 64.202094 
L 193.377273 63.481104 
L 193.630909 66.125544 
L 193.884545 62.762463 
L 194.138182 63.375905 
L 194.391818 64.681067 
L 194.645455 64.053527 
L 194.899091 61.259824 
L 195.152727 62.205811 
L 195.406364 65.425309 
L 195.66 62.929992 
L 195.913636 61.680057 
L 196.167273 58.761716 
L 196.420909 63.636072 
L 196.674545 61.653634 
L 196.928182 64.735775 
L 197.181818 62.530505 
L 197.435455 63.814932 
L 197.942727 60.761574 
L 198.196364 62.198773 
L 198.45 62.974384 
L 198.703636 60.310578 
L 198.957273 60.075348 
L 199.210909 63.431556 
L 199.464545 61.284535 
L 199.718182 64.860833 
L 199.971818 63.71833 
L 200.225455 63.543339 
L 200.479091 61.973776 
L 200.732727 61.114351 
L 200.986364 61.550313 
L 201.24 61.65119 
L 201.493636 60.882549 
L 201.747273 62.591947 
L 202.254545 59.917751 
L 202.508182 60.185863 
L 202.761818 61.524296 
L 203.269091 61.602505 
L 203.522727 61.028357 
L 203.776364 60.859135 
L 204.03 61.573664 
L 204.537273 59.266659 
L 204.790909 59.224489 
L 205.044545 60.452627 
L 205.298182 59.453813 
L 205.551818 59.312895 
L 205.805455 59.393539 
L 206.059091 60.7733 
L 206.312727 59.156513 
L 206.566364 60.34493 
L 206.82 60.203714 
L 207.073636 62.009593 
L 207.327273 59.839309 
L 207.580909 61.378697 
L 207.834545 62.074624 
L 208.088182 60.077802 
L 208.341818 60.658528 
L 208.595455 60.638644 
L 208.849091 60.318074 
L 209.102727 57.33526 
L 209.356364 58.793071 
L 209.61 61.778082 
L 209.863636 58.146598 
L 210.117273 59.399942 
L 210.370909 59.677479 
L 210.624545 58.678867 
L 211.131818 60.402794 
L 211.385455 58.428335 
L 211.639091 57.702517 
L 211.892727 59.44866 
L 212.146364 61.977204 
L 212.4 59.485901 
L 212.653636 60.942945 
L 212.907273 59.772897 
L 213.160909 59.737955 
L 213.668182 58.029502 
L 213.921818 58.746992 
L 214.175455 58.755264 
L 214.429091 57.971671 
L 214.682727 58.740586 
L 214.936364 60.435024 
L 215.19 56.460266 
L 215.443636 59.392852 
L 215.697273 58.516837 
L 215.950909 58.351583 
L 216.204545 59.089333 
L 216.458182 60.265596 
L 216.711818 57.902543 
L 216.965455 59.235431 
L 217.219091 57.214587 
L 217.472727 58.084928 
L 217.726364 57.45812 
L 217.98 57.57056 
L 218.233636 60.849251 
L 218.487273 55.849284 
L 218.740909 58.96209 
L 218.994545 58.295506 
L 219.501818 58.769863 
L 219.755455 59.726178 
L 220.009091 57.410069 
L 220.262727 59.788552 
L 220.516364 58.521072 
L 220.77 58.762315 
L 221.023636 57.901576 
L 221.277273 58.047897 
L 221.530909 59.281843 
L 221.784545 58.727889 
L 222.038182 58.949377 
L 222.291818 57.90636 
L 222.545455 59.892387 
L 222.799091 57.44727 
L 223.052727 58.285817 
L 223.56 56.70023 
L 223.813636 58.492476 
L 224.067273 58.513775 
L 224.320909 57.047709 
L 224.574545 57.168771 
L 224.828182 58.100676 
L 225.081818 57.29767 
L 225.335455 56.975182 
L 225.589091 58.362603 
L 225.842727 58.407141 
L 226.096364 58.886549 
L 226.35 56.867209 
L 226.603636 57.758772 
L 226.857273 58.059512 
L 227.110909 57.998714 
L 227.364545 57.390462 
L 227.618182 56.08381 
L 227.871818 59.250909 
L 228.125455 57.598001 
L 228.379091 57.544219 
L 228.632727 58.19996 
L 229.14 57.880315 
L 229.393636 57.680298 
L 229.647273 59.096006 
L 229.900909 59.700043 
L 230.154545 57.820134 
L 230.408182 57.045755 
L 230.661818 57.403579 
L 230.915455 58.591856 
L 231.169091 57.180515 
L 231.422727 56.789441 
L 231.676364 58.251293 
L 232.183636 58.614983 
L 232.437273 59.747014 
L 232.690909 57.172769 
L 232.944545 56.379263 
L 233.198182 58.340785 
L 233.451818 58.810294 
L 233.705455 56.267286 
L 233.959091 55.554545 
L 234.212727 57.044369 
L 234.466364 57.389006 
L 234.72 58.993479 
L 234.973636 57.493255 
L 235.227273 57.483445 
L 235.480909 57.345355 
L 235.734545 57.615698 
L 235.988182 56.311006 
L 236.241818 57.033629 
L 236.495455 55.845467 
L 236.749091 58.246772 
L 237.002727 57.178818 
L 237.256364 58.065712 
L 237.51 57.885861 
L 237.763636 56.184327 
L 238.017273 57.438494 
L 238.270909 57.27475 
L 238.524545 57.944647 
L 239.031818 56.173051 
L 239.285455 56.516989 
L 239.539091 56.428341 
L 239.792727 59.370442 
L 240.046364 59.12539 
L 240.3 56.941561 
L 240.553636 56.720779 
L 240.807273 58.350019 
L 241.060909 58.028922 
L 241.568182 55.960976 
L 241.821818 57.635885 
L 242.075455 56.19957 
L 242.329091 57.51407 
L 242.582727 57.55889 
L 242.836364 56.867324 
L 243.09 57.690751 
L 243.343636 57.946903 
L 243.597273 57.593701 
L 243.850909 58.827411 
L 244.358182 56.759733 
L 244.611818 58.550724 
L 244.865455 57.678825 
L 245.119091 58.8358 
L 245.626364 55.668989 
L 245.88 57.477908 
L 246.133636 57.306312 
L 246.387273 56.652735 
L 246.640909 58.011004 
L 247.148182 56.897513 
L 247.655455 57.857908 
L 248.162727 58.65189 
L 248.416364 56.490485 
L 248.923636 57.576032 
L 249.177273 56.564743 
L 249.430909 59.492775 
L 249.684545 56.692334 
L 249.938182 57.387229 
L 250.191818 59.013454 
L 250.445455 57.140671 
L 250.699091 57.121072 
L 250.952727 58.276151 
L 251.206364 58.714499 
L 251.713636 56.588647 
L 251.967273 57.112054 
L 252.220909 56.914739 
L 252.474545 59.351285 
L 252.981818 57.015215 
L 253.235455 58.364204 
L 253.489091 57.678865 
L 253.742727 57.47421 
L 253.996364 56.945802 
L 254.25 58.811272 
L 254.757273 56.066936 
L 255.010909 55.62894 
L 255.264545 58.303971 
L 255.518182 56.886045 
L 255.771818 58.39835 
L 256.025455 56.383254 
L 256.532727 57.559481 
L 256.786364 56.427272 
L 257.04 56.388326 
L 257.293636 57.847334 
L 257.547273 56.480769 
L 257.800909 59.504774 
L 258.054545 56.251105 
L 258.308182 56.383967 
L 258.815455 57.665242 
L 259.069091 57.902525 
L 259.322727 56.410684 
L 259.576364 56.663758 
L 259.83 57.203563 
L 260.083636 58.068971 
L 260.337273 59.516608 
L 260.590909 58.246092 
L 260.844545 57.558712 
L 261.098182 58.142925 
L 261.351818 57.413694 
L 261.605455 57.949292 
L 261.859091 56.90472 
L 262.112727 59.298506 
L 262.366364 58.908379 
L 262.62 57.117204 
L 262.873636 56.304408 
L 263.380909 57.451074 
L 263.634545 57.611793 
L 263.888182 55.803654 
L 264.141818 57.461648 
L 264.395455 56.406894 
L 264.649091 57.302016 
L 264.902727 57.318099 
L 265.41 58.869358 
L 265.663636 58.318488 
L 265.917273 56.983277 
L 266.170909 57.656194 
L 266.424545 57.298999 
L 266.678182 57.340804 
L 266.931818 58.074103 
L 267.185455 56.919627 
L 267.439091 56.839162 
L 267.946364 58.857164 
L 268.2 58.88895 
L 268.453636 56.754112 
L 268.707273 58.512346 
L 268.960909 56.694822 
L 269.214545 58.035564 
L 269.468182 58.190553 
L 269.721818 57.05744 
L 269.975455 58.076961 
L 270.229091 57.822917 
L 270.482727 57.945649 
L 270.736364 57.633291 
L 270.99 58.089522 
L 271.243636 56.65599 
L 272.004545 58.728307 
L 272.258182 57.928935 
L 272.511818 58.308927 
L 272.765455 59.181036 
L 273.019091 56.684318 
L 273.272727 57.614438 
L 273.526364 57.634016 
L 273.78 56.927437 
L 274.033636 57.520372 
L 274.540909 59.26936 
L 274.794545 57.850053 
L 275.048182 57.578241 
L 275.555455 58.504895 
L 275.809091 58.214397 
L 276.062727 57.152644 
L 276.316364 58.951167 
L 276.57 57.399511 
L 276.823636 58.68722 
L 277.330909 57.360433 
L 277.584545 57.573763 
L 277.838182 58.014191 
L 278.091818 59.405513 
L 278.599091 57.829136 
L 278.852727 56.95735 
L 279.36 58.691991 
L 279.613636 58.951448 
L 279.867273 57.761467 
L 280.374545 58.664574 
L 280.881818 57.506719 
L 281.135455 58.421363 
L 281.389091 57.50391 
L 281.642727 57.635084 
L 282.15 58.205987 
L 282.403636 57.944758 
L 282.657273 58.057976 
L 282.910909 57.717104 
L 283.164545 58.111174 
L 283.418182 57.564835 
L 283.671818 58.767248 
L 283.925455 57.596939 
L 284.179091 58.703829 
L 284.432727 58.372213 
L 284.686364 57.411175 
L 284.94 58.223693 
L 285.193636 57.808571 
L 285.447273 57.796749 
L 285.700909 58.056326 
L 285.954545 58.480286 
L 286.208182 57.863161 
L 286.461818 59.491926 
L 286.715455 58.334198 
L 286.969091 58.940139 
L 287.222727 58.603899 
L 287.476364 57.534654 
L 287.73 59.606813 
L 288.237273 57.794642 
L 288.490909 58.686745 
L 288.744545 58.412586 
L 288.998182 57.810874 
L 289.251818 58.192133 
L 289.505455 57.87806 
L 289.759091 58.894671 
L 290.266364 59.055022 
L 290.52 57.305316 
L 290.773636 58.231369 
L 291.027273 58.224895 
L 291.280909 59.224672 
L 291.534545 59.301993 
L 291.788182 58.34585 
L 292.041818 58.540119 
L 292.295455 58.117798 
L 292.549091 58.915346 
L 292.802727 59.018992 
L 293.056364 58.999515 
L 293.31 58.759966 
L 293.563636 59.071258 
L 293.817273 58.036439 
L 294.070909 58.725632 
L 294.324545 58.836996 
L 294.578182 57.993427 
L 294.831818 58.762792 
L 295.085455 58.448243 
L 295.339091 58.928512 
L 295.592727 57.672614 
L 295.846364 58.768526 
L 296.1 56.834479 
L 296.353636 58.633071 
L 296.607273 58.904122 
L 296.860909 57.544112 
L 297.114545 59.091327 
L 297.368182 57.381364 
L 297.621818 59.83446 
L 297.875455 57.557811 
L 298.382727 58.897761 
L 298.636364 58.953026 
L 298.89 59.553344 
L 299.143636 59.326823 
L 299.397273 58.767532 
L 299.650909 58.58722 
L 299.904545 58.720435 
L 300.158182 59.353703 
L 300.411818 59.329473 
L 301.172727 58.024366 
L 301.426364 58.600262 
L 301.68 58.544767 
L 302.187273 59.684558 
L 302.440909 59.040666 
L 302.694545 59.693868 
L 302.948182 59.381909 
L 303.201818 58.829242 
L 303.455455 58.653876 
L 303.709091 59.984815 
L 303.962727 57.725253 
L 304.216364 59.260626 
L 304.47 59.191015 
L 304.723636 58.214763 
L 304.977273 58.682326 
L 305.230909 58.390972 
L 305.484545 58.611472 
L 305.738182 59.778869 
L 305.991818 60.150626 
L 306.245455 58.588996 
L 306.499091 58.247652 
L 306.752727 58.673632 
L 307.006364 60.158921 
L 307.26 59.291022 
L 307.767273 58.495099 
L 308.020909 58.5445 
L 308.274545 59.085627 
L 308.528182 60.265571 
L 308.781818 57.672397 
L 309.035455 59.775058 
L 309.289091 59.025795 
L 309.542727 58.774201 
L 309.796364 58.985091 
L 310.05 58.911154 
L 310.303636 59.314564 
L 310.557273 58.776107 
L 310.810909 59.600291 
L 311.064545 60.013169 
L 311.318182 58.91146 
L 311.318182 58.91146 
" style="fill:none;stroke:#1f77b4;stroke-linecap:square;stroke-width:2;"/>
   </g>
   <g id="patch_3">
    <path d="M 45 315 
L 45 43.2 
" style="fill:none;stroke:#000000;stroke-linecap:square;stroke-linejoin:miter;stroke-width:0.8;"/>
   </g>
   <g id="patch_4">
    <path d="M 324 315 
L 324 43.2 
" style="fill:none;stroke:#000000;stroke-linecap:square;stroke-linejoin:miter;stroke-width:0.8;"/>
   </g>
   <g id="patch_5">
    <path d="M 45 315 
L 324 315 
" style="fill:none;stroke:#000000;stroke-linecap:square;stroke-linejoin:miter;stroke-width:0.8;"/>
   </g>
   <g id="patch_6">
    <path d="M 45 43.2 
L 324 43.2 
" style="fill:none;stroke:#000000;stroke-linecap:square;stroke-linejoin:miter;stroke-width:0.8;"/>
   </g>
   <g id="text_16">
    <!-- Polymer Pulled By External Force: Rg Change -->
    <defs>
     <path d="M 19.671875 64.796875 
L 19.671875 37.40625 
L 32.078125 37.40625 
Q 38.96875 37.40625 42.71875 40.96875 
Q 46.484375 44.53125 46.484375 51.125 
Q 46.484375 57.671875 42.71875 61.234375 
Q 38.96875 64.796875 32.078125 64.796875 
z
M 9.8125 72.90625 
L 32.078125 72.90625 
Q 44.34375 72.90625 50.609375 67.359375 
Q 56.890625 61.8125 56.890625 51.125 
Q 56.890625 40.328125 50.609375 34.8125 
Q 44.34375 29.296875 32.078125 29.296875 
L 19.671875 29.296875 
L 19.671875 0 
L 9.8125 0 
z
" id="DejaVuSans-80"/>
     <path d="M 30.609375 48.390625 
Q 23.390625 48.390625 19.1875 42.75 
Q 14.984375 37.109375 14.984375 27.296875 
Q 14.984375 17.484375 19.15625 11.84375 
Q 23.34375 6.203125 30.609375 6.203125 
Q 37.796875 6.203125 41.984375 11.859375 
Q 46.1875 17.53125 46.1875 27.296875 
Q 46.1875 37.015625 41.984375 42.703125 
Q 37.796875 48.390625 30.609375 48.390625 
z
M 30.609375 56 
Q 42.328125 56 49.015625 48.375 
Q 55.71875 40.765625 55.71875 27.296875 
Q 55.71875 13.875 49.015625 6.21875 
Q 42.328125 -1.421875 30.609375 -1.421875 
Q 18.84375 -1.421875 12.171875 6.21875 
Q 5.515625 13.875 5.515625 27.296875 
Q 5.515625 40.765625 12.171875 48.375 
Q 18.84375 56 30.609375 56 
z
" id="DejaVuSans-111"/>
     <path d="M 9.421875 75.984375 
L 18.40625 75.984375 
L 18.40625 0 
L 9.421875 0 
z
" id="DejaVuSans-108"/>
     <path d="M 32.171875 -5.078125 
Q 28.375 -14.84375 24.75 -17.8125 
Q 21.140625 -20.796875 15.09375 -20.796875 
L 7.90625 -20.796875 
L 7.90625 -13.28125 
L 13.1875 -13.28125 
Q 16.890625 -13.28125 18.9375 -11.515625 
Q 21 -9.765625 23.484375 -3.21875 
L 25.09375 0.875 
L 2.984375 54.6875 
L 12.5 54.6875 
L 29.59375 11.921875 
L 46.6875 54.6875 
L 56.203125 54.6875 
z
" id="DejaVuSans-121"/>
     <path d="M 41.109375 46.296875 
Q 39.59375 47.171875 37.8125 47.578125 
Q 36.03125 48 33.890625 48 
Q 26.265625 48 22.1875 43.046875 
Q 18.109375 38.09375 18.109375 28.8125 
L 18.109375 0 
L 9.078125 0 
L 9.078125 54.6875 
L 18.109375 54.6875 
L 18.109375 46.1875 
Q 20.953125 51.171875 25.484375 53.578125 
Q 30.03125 56 36.53125 56 
Q 37.453125 56 38.578125 55.875 
Q 39.703125 55.765625 41.0625 55.515625 
z
" id="DejaVuSans-114"/>
     <path d="M 8.5 21.578125 
L 8.5 54.6875 
L 17.484375 54.6875 
L 17.484375 21.921875 
Q 17.484375 14.15625 20.5 10.265625 
Q 23.53125 6.390625 29.59375 6.390625 
Q 36.859375 6.390625 41.078125 11.03125 
Q 45.3125 15.671875 45.3125 23.6875 
L 45.3125 54.6875 
L 54.296875 54.6875 
L 54.296875 0 
L 45.3125 0 
L 45.3125 8.40625 
Q 42.046875 3.421875 37.71875 1 
Q 33.40625 -1.421875 27.6875 -1.421875 
Q 18.265625 -1.421875 13.375 4.4375 
Q 8.5 10.296875 8.5 21.578125 
z
M 31.109375 56 
z
" id="DejaVuSans-117"/>
     <path d="M 45.40625 46.390625 
L 45.40625 75.984375 
L 54.390625 75.984375 
L 54.390625 0 
L 45.40625 0 
L 45.40625 8.203125 
Q 42.578125 3.328125 38.25 0.953125 
Q 33.9375 -1.421875 27.875 -1.421875 
Q 17.96875 -1.421875 11.734375 6.484375 
Q 5.515625 14.40625 5.515625 27.296875 
Q 5.515625 40.1875 11.734375 48.09375 
Q 17.96875 56 27.875 56 
Q 33.9375 56 38.25 53.625 
Q 42.578125 51.265625 45.40625 46.390625 
z
M 14.796875 27.296875 
Q 14.796875 17.390625 18.875 11.75 
Q 22.953125 6.109375 30.078125 6.109375 
Q 37.203125 6.109375 41.296875 11.75 
Q 45.40625 17.390625 45.40625 27.296875 
Q 45.40625 37.203125 41.296875 42.84375 
Q 37.203125 48.484375 30.078125 48.484375 
Q 22.953125 48.484375 18.875 42.84375 
Q 14.796875 37.203125 14.796875 27.296875 
z
" id="DejaVuSans-100"/>
     <path d="M 19.671875 34.8125 
L 19.671875 8.109375 
L 35.5 8.109375 
Q 43.453125 8.109375 47.28125 11.40625 
Q 51.125 14.703125 51.125 21.484375 
Q 51.125 28.328125 47.28125 31.5625 
Q 43.453125 34.8125 35.5 34.8125 
z
M 19.671875 64.796875 
L 19.671875 42.828125 
L 34.28125 42.828125 
Q 41.5 42.828125 45.03125 45.53125 
Q 48.578125 48.25 48.578125 53.8125 
Q 48.578125 59.328125 45.03125 62.0625 
Q 41.5 64.796875 34.28125 64.796875 
z
M 9.8125 72.90625 
L 35.015625 72.90625 
Q 46.296875 72.90625 52.390625 68.21875 
Q 58.5 63.53125 58.5 54.890625 
Q 58.5 48.1875 55.375 44.234375 
Q 52.25 40.28125 46.1875 39.3125 
Q 53.46875 37.75 57.5 32.78125 
Q 61.53125 27.828125 61.53125 20.40625 
Q 61.53125 10.640625 54.890625 5.3125 
Q 48.25 0 35.984375 0 
L 9.8125 0 
z
" id="DejaVuSans-66"/>
     <path d="M 9.8125 72.90625 
L 55.90625 72.90625 
L 55.90625 64.59375 
L 19.671875 64.59375 
L 19.671875 43.015625 
L 54.390625 43.015625 
L 54.390625 34.71875 
L 19.671875 34.71875 
L 19.671875 8.296875 
L 56.78125 8.296875 
L 56.78125 0 
L 9.8125 0 
z
" id="DejaVuSans-69"/>
     <path d="M 54.890625 54.6875 
L 35.109375 28.078125 
L 55.90625 0 
L 45.3125 0 
L 29.390625 21.484375 
L 13.484375 0 
L 2.875 0 
L 24.125 28.609375 
L 4.6875 54.6875 
L 15.28125 54.6875 
L 29.78125 35.203125 
L 44.28125 54.6875 
z
" id="DejaVuSans-120"/>
     <path d="M 54.890625 33.015625 
L 54.890625 0 
L 45.90625 0 
L 45.90625 32.71875 
Q 45.90625 40.484375 42.875 44.328125 
Q 39.84375 48.1875 33.796875 48.1875 
Q 26.515625 48.1875 22.3125 43.546875 
Q 18.109375 38.921875 18.109375 30.90625 
L 18.109375 0 
L 9.078125 0 
L 9.078125 54.6875 
L 18.109375 54.6875 
L 18.109375 46.1875 
Q 21.34375 51.125 25.703125 53.5625 
Q 30.078125 56 35.796875 56 
Q 45.21875 56 50.046875 50.171875 
Q 54.890625 44.34375 54.890625 33.015625 
z
" id="DejaVuSans-110"/>
     <path d="M 34.28125 27.484375 
Q 23.390625 27.484375 19.1875 25 
Q 14.984375 22.515625 14.984375 16.5 
Q 14.984375 11.71875 18.140625 8.90625 
Q 21.296875 6.109375 26.703125 6.109375 
Q 34.1875 6.109375 38.703125 11.40625 
Q 43.21875 16.703125 43.21875 25.484375 
L 43.21875 27.484375 
z
M 52.203125 31.203125 
L 52.203125 0 
L 43.21875 0 
L 43.21875 8.296875 
Q 40.140625 3.328125 35.546875 0.953125 
Q 30.953125 -1.421875 24.3125 -1.421875 
Q 15.921875 -1.421875 10.953125 3.296875 
Q 6 8.015625 6 15.921875 
Q 6 25.140625 12.171875 29.828125 
Q 18.359375 34.515625 30.609375 34.515625 
L 43.21875 34.515625 
L 43.21875 35.40625 
Q 43.21875 41.609375 39.140625 45 
Q 35.0625 48.390625 27.6875 48.390625 
Q 23 48.390625 18.546875 47.265625 
Q 14.109375 46.140625 10.015625 43.890625 
L 10.015625 52.203125 
Q 14.9375 54.109375 19.578125 55.046875 
Q 24.21875 56 28.609375 56 
Q 40.484375 56 46.34375 49.84375 
Q 52.203125 43.703125 52.203125 31.203125 
z
" id="DejaVuSans-97"/>
     <path d="M 9.8125 72.90625 
L 51.703125 72.90625 
L 51.703125 64.59375 
L 19.671875 64.59375 
L 19.671875 43.109375 
L 48.578125 43.109375 
L 48.578125 34.8125 
L 19.671875 34.8125 
L 19.671875 0 
L 9.8125 0 
z
" id="DejaVuSans-70"/>
     <path d="M 48.78125 52.59375 
L 48.78125 44.1875 
Q 44.96875 46.296875 41.140625 47.34375 
Q 37.3125 48.390625 33.40625 48.390625 
Q 24.65625 48.390625 19.8125 42.84375 
Q 14.984375 37.3125 14.984375 27.296875 
Q 14.984375 17.28125 19.8125 11.734375 
Q 24.65625 6.203125 33.40625 6.203125 
Q 37.3125 6.203125 41.140625 7.25 
Q 44.96875 8.296875 48.78125 10.40625 
L 48.78125 2.09375 
Q 45.015625 0.34375 40.984375 -0.53125 
Q 36.96875 -1.421875 32.421875 -1.421875 
Q 20.0625 -1.421875 12.78125 6.34375 
Q 5.515625 14.109375 5.515625 27.296875 
Q 5.515625 40.671875 12.859375 48.328125 
Q 20.21875 56 33.015625 56 
Q 37.15625 56 41.109375 55.140625 
Q 45.0625 54.296875 48.78125 52.59375 
z
" id="DejaVuSans-99"/>
     <path d="M 11.71875 12.40625 
L 22.015625 12.40625 
L 22.015625 0 
L 11.71875 0 
z
M 11.71875 51.703125 
L 22.015625 51.703125 
L 22.015625 39.3125 
L 11.71875 39.3125 
z
" id="DejaVuSans-58"/>
     <path d="M 44.390625 34.1875 
Q 47.5625 33.109375 50.5625 29.59375 
Q 53.5625 26.078125 56.59375 19.921875 
L 66.609375 0 
L 56 0 
L 46.6875 18.703125 
Q 43.0625 26.03125 39.671875 28.421875 
Q 36.28125 30.8125 30.421875 30.8125 
L 19.671875 30.8125 
L 19.671875 0 
L 9.8125 0 
L 9.8125 72.90625 
L 32.078125 72.90625 
Q 44.578125 72.90625 50.734375 67.671875 
Q 56.890625 62.453125 56.890625 51.90625 
Q 56.890625 45.015625 53.6875 40.46875 
Q 50.484375 35.9375 44.390625 34.1875 
z
M 19.671875 64.796875 
L 19.671875 38.921875 
L 32.078125 38.921875 
Q 39.203125 38.921875 42.84375 42.21875 
Q 46.484375 45.515625 46.484375 51.90625 
Q 46.484375 58.296875 42.84375 61.546875 
Q 39.203125 64.796875 32.078125 64.796875 
z
" id="DejaVuSans-82"/>
     <path d="M 45.40625 27.984375 
Q 45.40625 37.75 41.375 43.109375 
Q 37.359375 48.484375 30.078125 48.484375 
Q 22.859375 48.484375 18.828125 43.109375 
Q 14.796875 37.75 14.796875 27.984375 
Q 14.796875 18.265625 18.828125 12.890625 
Q 22.859375 7.515625 30.078125 7.515625 
Q 37.359375 7.515625 41.375 12.890625 
Q 45.40625 18.265625 45.40625 27.984375 
z
M 54.390625 6.78125 
Q 54.390625 -7.171875 48.1875 -13.984375 
Q 42 -20.796875 29.203125 -20.796875 
Q 24.46875 -20.796875 20.265625 -20.09375 
Q 16.0625 -19.390625 12.109375 -17.921875 
L 12.109375 -9.1875 
Q 16.0625 -11.328125 19.921875 -12.34375 
Q 23.78125 -13.375 27.78125 -13.375 
Q 36.625 -13.375 41.015625 -8.765625 
Q 45.40625 -4.15625 45.40625 5.171875 
L 45.40625 9.625 
Q 42.625 4.78125 38.28125 2.390625 
Q 33.9375 0 27.875 0 
Q 17.828125 0 11.671875 7.65625 
Q 5.515625 15.328125 5.515625 27.984375 
Q 5.515625 40.671875 11.671875 48.328125 
Q 17.828125 56 27.875 56 
Q 33.9375 56 38.28125 53.609375 
Q 42.625 51.21875 45.40625 46.390625 
L 45.40625 54.6875 
L 54.390625 54.6875 
z
" id="DejaVuSans-103"/>
     <path d="M 64.40625 67.28125 
L 64.40625 56.890625 
Q 59.421875 61.53125 53.78125 63.8125 
Q 48.140625 66.109375 41.796875 66.109375 
Q 29.296875 66.109375 22.65625 58.46875 
Q 16.015625 50.828125 16.015625 36.375 
Q 16.015625 21.96875 22.65625 14.328125 
Q 29.296875 6.6875 41.796875 6.6875 
Q 48.140625 6.6875 53.78125 8.984375 
Q 59.421875 11.28125 64.40625 15.921875 
L 64.40625 5.609375 
Q 59.234375 2.09375 53.4375 0.328125 
Q 47.65625 -1.421875 41.21875 -1.421875 
Q 24.65625 -1.421875 15.125 8.703125 
Q 5.609375 18.84375 5.609375 36.375 
Q 5.609375 53.953125 15.125 64.078125 
Q 24.65625 74.21875 41.21875 74.21875 
Q 47.75 74.21875 53.53125 72.484375 
Q 59.328125 70.75 64.40625 67.28125 
z
" id="DejaVuSans-67"/>
     <path d="M 54.890625 33.015625 
L 54.890625 0 
L 45.90625 0 
L 45.90625 32.71875 
Q 45.90625 40.484375 42.875 44.328125 
Q 39.84375 48.1875 33.796875 48.1875 
Q 26.515625 48.1875 22.3125 43.546875 
Q 18.109375 38.921875 18.109375 30.90625 
L 18.109375 0 
L 9.078125 0 
L 9.078125 75.984375 
L 18.109375 75.984375 
L 18.109375 46.1875 
Q 21.34375 51.125 25.703125 53.5625 
Q 30.078125 56 35.796875 56 
Q 45.21875 56 50.046875 50.171875 
Q 54.890625 44.34375 54.890625 33.015625 
z
" id="DejaVuSans-104"/>
    </defs>
    <g transform="translate(48.084375 37.2)scale(0.12 -0.12)">
     <use xlink:href="#DejaVuSans-80"/>
     <use x="60.255859" xlink:href="#DejaVuSans-111"/>
     <use x="121.4375" xlink:href="#DejaVuSans-108"/>
     <use x="149.220703" xlink:href="#DejaVuSans-121"/>
     <use x="208.400391" xlink:href="#DejaVuSans-109"/>
     <use x="305.8125" xlink:href="#DejaVuSans-101"/>
     <use x="367.335938" xlink:href="#DejaVuSans-114"/>
     <use x="408.449219" xlink:href="#DejaVuSans-32"/>
     <use x="440.236328" xlink:href="#DejaVuSans-80"/>
     <use x="500.523438" xlink:href="#DejaVuSans-117"/>
     <use x="563.902344" xlink:href="#DejaVuSans-108"/>
     <use x="591.685547" xlink:href="#DejaVuSans-108"/>
     <use x="619.46875" xlink:href="#DejaVuSans-101"/>
     <use x="680.992188" xlink:href="#DejaVuSans-100"/>
     <use x="744.46875" xlink:href="#DejaVuSans-32"/>
     <use x="776.255859" xlink:href="#DejaVuSans-66"/>
     <use x="844.859375" xlink:href="#DejaVuSans-121"/>
     <use x="904.039062" xlink:href="#DejaVuSans-32"/>
     <use x="935.826172" xlink:href="#DejaVuSans-69"/>
     <use x="999.009766" xlink:href="#DejaVuSans-120"/>
     <use x="1058.189453" xlink:href="#DejaVuSans-116"/>
     <use x="1097.398438" xlink:href="#DejaVuSans-101"/>
     <use x="1158.921875" xlink:href="#DejaVuSans-114"/>
     <use x="1200.019531" xlink:href="#DejaVuSans-110"/>
     <use x="1263.398438" xlink:href="#DejaVuSans-97"/>
     <use x="1324.677734" xlink:href="#DejaVuSans-108"/>
     <use x="1352.460938" xlink:href="#DejaVuSans-32"/>
     <use x="1384.248047" xlink:href="#DejaVuSans-70"/>
     <use x="1441.720703" xlink:href="#DejaVuSans-111"/>
     <use x="1502.902344" xlink:href="#DejaVuSans-114"/>
     <use x="1543.984375" xlink:href="#DejaVuSans-99"/>
     <use x="1598.964844" xlink:href="#DejaVuSans-101"/>
     <use x="1660.488281" xlink:href="#DejaVuSans-58"/>
     <use x="1694.179688" xlink:href="#DejaVuSans-32"/>
     <use x="1725.966797" xlink:href="#DejaVuSans-82"/>
     <use x="1795.449219" xlink:href="#DejaVuSans-103"/>
     <use x="1858.925781" xlink:href="#DejaVuSans-32"/>
     <use x="1890.712891" xlink:href="#DejaVuSans-67"/>
     <use x="1960.537109" xlink:href="#DejaVuSans-104"/>
     <use x="2023.916016" xlink:href="#DejaVuSans-97"/>
     <use x="2085.195312" xlink:href="#DejaVuSans-110"/>
     <use x="2148.574219" xlink:href="#DejaVuSans-103"/>
     <use x="2212.050781" xlink:href="#DejaVuSans-101"/>
    </g>
   </g>
   <g id="legend_1">
    <g id="patch_7">
     <path d="M 52 65.878125 
L 97.296875 65.878125 
Q 99.296875 65.878125 99.296875 63.878125 
L 99.296875 50.2 
Q 99.296875 48.2 97.296875 48.2 
L 52 48.2 
Q 50 48.2 50 50.2 
L 50 63.878125 
Q 50 65.878125 52 65.878125 
z
" style="fill:#ffffff;opacity:0.8;stroke:#cccccc;stroke-linejoin:miter;"/>
    </g>
    <g id="line2d_15">
     <path d="M 54 56.298437 
L 74 56.298437 
" style="fill:none;stroke:#1f77b4;stroke-linecap:square;stroke-width:2;"/>
    </g>
    <g id="line2d_16"/>
    <g id="text_17">
     <!-- Rg -->
     <g transform="translate(82 59.798437)scale(0.1 -0.1)">
      <use xlink:href="#DejaVuSans-82"/>
      <use x="69.482422" xlink:href="#DejaVuSans-103"/>
     </g>
    </g>
   </g>
  </g>
 </g>
 <defs>
  <clipPath id="p5658c09995">
   <rect height="271.8" width="279" x="45" y="43.2"/>
  </clipPath>
 </defs>
</svg>
